<?xml version="1.0" encoding="UTF-8" standalone="no"?>
<svg
   xmlns:dc="http://purl.org/dc/elements/1.1/"
   xmlns:cc="http://creativecommons.org/ns#"
   xmlns:rdf="http://www.w3.org/1999/02/22-rdf-syntax-ns#"
   xmlns:svg="http://www.w3.org/2000/svg"
   xmlns="http://www.w3.org/2000/svg"
   xmlns:xlink="http://www.w3.org/1999/xlink"
   xmlns:sodipodi="http://sodipodi.sourceforge.net/DTD/sodipodi-0.dtd"
   xmlns:inkscape="http://www.inkscape.org/namespaces/inkscape"
   sodipodi:docname="background.svg"
   inkscape:version="1.0 (4035a4fb49, 2020-05-01)"
   width="1366px"
   height="768px"
   viewBox="0 0 1366 768"
   version="1.1"
   id="SVGRoot">
  <defs
     id="defs20">
    <linearGradient
       id="linearGradient1461"
       inkscape:collect="always">
      <stop
         id="stop1457"
         offset="0"
         style="stop-color:#ffff00;stop-opacity:1;" />
      <stop
         id="stop1459"
         offset="1"
         style="stop-color:#ffff00;stop-opacity:0;" />
    </linearGradient>
    <linearGradient
       id="linearGradient1409"
       inkscape:collect="always">
      <stop
         id="stop1405"
         offset="0"
         style="stop-color:#ffff55;stop-opacity:1;" />
      <stop
         id="stop1407"
         offset="1"
         style="stop-color:#ffff55;stop-opacity:0;" />
    </linearGradient>
    <linearGradient
       id="linearGradient1351"
       inkscape:collect="always">
      <stop
         id="stop1347"
         offset="0"
         style="stop-color:#ffff55;stop-opacity:1;" />
      <stop
         id="stop1349"
         offset="1"
         style="stop-color:#ffff55;stop-opacity:0;" />
    </linearGradient>
    <linearGradient
       inkscape:collect="always"
       id="linearGradient1062">
      <stop
         style="stop-color:#ffd871;stop-opacity:1"
         offset="0"
         id="stop1058" />
      <stop
         style="stop-color:#ff7f2a;stop-opacity:1"
         offset="1"
         id="stop1060" />
    </linearGradient>
    <linearGradient
       inkscape:collect="always"
       id="linearGradient1005">
      <stop
         style="stop-color:#ffba38;stop-opacity:0.98397436"
         offset="0"
         id="stop1001" />
      <stop
         style="stop-color:#ea1100;stop-opacity:0"
         offset="1"
         id="stop1003" />
    </linearGradient>
    <linearGradient
       inkscape:collect="always"
       id="linearGradient982">
      <stop
         style="stop-color:#731610;stop-opacity:1"
         offset="0"
         id="stop978" />
      <stop
         style="stop-color:#ffc048;stop-opacity:1"
         offset="1"
         id="stop980" />
    </linearGradient>
    <linearGradient
       inkscape:collect="always"
       id="linearGradient895">
      <stop
         style="stop-color:#550000;stop-opacity:1"
         offset="0"
         id="stop891" />
      <stop
         style="stop-color:#ff9955;stop-opacity:1"
         offset="1"
         id="stop893" />
    </linearGradient>
    <linearGradient
       id="linearGradient1122"
       inkscape:collect="always">
      <stop
         id="stop1118"
         offset="0"
         style="stop-color:#731610;stop-opacity:1;" />
      <stop
         id="stop1120"
         offset="1"
         style="stop-color:#e52c12;stop-opacity:0.82661283" />
    </linearGradient>
    <linearGradient
       id="linearGradient1072"
       inkscape:collect="always">
      <stop
         id="stop1068"
         offset="0"
         style="stop-color:#500a16;stop-opacity:1;" />
      <stop
         id="stop1070"
         offset="1"
         style="stop-color:#500a16;stop-opacity:0;" />
    </linearGradient>
    <linearGradient
       gradientUnits="userSpaceOnUse"
       y2="160.47361"
       x2="1366"
       y1="160.47361"
       x1="-0.2236068"
       id="linearGradient1074"
       xlink:href="#linearGradient1072"
       inkscape:collect="always" />
    <linearGradient
       gradientUnits="userSpaceOnUse"
       y2="90"
       x2="210"
       y1="205"
       x1="210"
       id="linearGradient1124"
       xlink:href="#linearGradient1122"
       inkscape:collect="always" />
    <linearGradient
       y2="90"
       x2="210"
       y1="205"
       x1="210"
       gradientUnits="userSpaceOnUse"
       id="linearGradient1155"
       xlink:href="#linearGradient1122"
       inkscape:collect="always"
       gradientTransform="matrix(1,0,0,0.97849462,0,2.344086)" />
    <linearGradient
       y2="160.47361"
       x2="1366"
       y1="160.47361"
       x1="-0.2236068"
       gradientUnits="userSpaceOnUse"
       id="linearGradient1157"
       xlink:href="#linearGradient1072"
       inkscape:collect="always"
       gradientTransform="matrix(1,0,0,0.97849462,0,2.344086)" />
    <linearGradient
       inkscape:collect="always"
       xlink:href="#linearGradient895"
       id="linearGradient897"
       x1="700"
       y1="240"
       x2="700"
       y2="60"
       gradientUnits="userSpaceOnUse"
       gradientTransform="matrix(1.0007326,0,0,0.48349054,0,62.971701)" />
    <linearGradient
       inkscape:collect="always"
       xlink:href="#linearGradient982"
       id="linearGradient984"
       x1="740"
       y1="200"
       x2="740"
       y2="360"
       gradientUnits="userSpaceOnUse"
       gradientTransform="matrix(1,0,0,2.76,0,-387.2)" />
    <linearGradient
       inkscape:collect="always"
       xlink:href="#linearGradient1122"
       id="linearGradient987"
       gradientUnits="userSpaceOnUse"
       gradientTransform="matrix(1,0,0,0.97849462,0,2.544087)"
       x1="210"
       y1="205"
       x2="210"
       y2="90" />
    <linearGradient
       inkscape:collect="always"
       xlink:href="#linearGradient1072"
       id="linearGradient989"
       gradientUnits="userSpaceOnUse"
       gradientTransform="matrix(1,0,0,0.97849462,0,2.544087)"
       x1="-0.2236068"
       y1="160.47361"
       x2="1366"
       y2="160.47361" />
    <linearGradient
       inkscape:collect="always"
       xlink:href="#linearGradient1005"
       id="linearGradient1007"
       x1="280"
       y1="340"
       x2="280"
       y2="640"
       gradientUnits="userSpaceOnUse" />
    <linearGradient
       inkscape:collect="always"
       xlink:href="#linearGradient1062"
       id="linearGradient1064"
       x1="240"
       y1="420"
       x2="240"
       y2="660"
       gradientUnits="userSpaceOnUse" />
    <filter
       inkscape:collect="always"
       style="color-interpolation-filters:sRGB"
       id="filter1118"
       x="-4.16e-06"
       width="1.0000083"
       y="-7.011236e-07"
       height="1.0000014">
      <feGaussianBlur
         inkscape:collect="always"
         stdDeviation="5.2e-05"
         id="feGaussianBlur1120" />
    </filter>
    <linearGradient
       gradientUnits="userSpaceOnUse"
       y2="160.33204"
       x2="383.24679"
       y1="160.33204"
       x1="302.80649"
       id="linearGradient1353"
       xlink:href="#linearGradient1351"
       inkscape:collect="always" />
    <filter
       height="1.8348395"
       y="-0.41741976"
       width="2.3281712"
       x="-0.6640856"
       id="filter1399"
       style="color-interpolation-filters:sRGB"
       inkscape:collect="always">
      <feGaussianBlur
         id="feGaussianBlur1401"
         stdDeviation="12.523648"
         inkscape:collect="always" />
    </filter>
    <linearGradient
       gradientTransform="translate(7.25422,6.65833)"
       gradientUnits="userSpaceOnUse"
       y2="168.00673"
       x2="364.16069"
       y1="168.00673"
       x1="340.64345"
       id="linearGradient1411"
       xlink:href="#linearGradient1409"
       inkscape:collect="always" />
    <filter
       height="1.3579122"
       y="-0.17895608"
       width="2.3014369"
       x="-0.65071847"
       id="filter1425"
       style="color-interpolation-filters:sRGB"
       inkscape:collect="always">
      <feGaussianBlur
         id="feGaussianBlur1427"
         stdDeviation="6.1028259"
         inkscape:collect="always" />
    </filter>
    <linearGradient
       gradientUnits="userSpaceOnUse"
       y2="146.6981"
       x2="389.12839"
       y1="146.6981"
       x1="378.45251"
       id="linearGradient1437"
       xlink:href="#linearGradient1409"
       inkscape:collect="always" />
    <filter
       height="1.5815145"
       y="-0.29075727"
       width="2.0894114"
       x="-0.54470569"
       id="filter1451"
       style="color-interpolation-filters:sRGB"
       inkscape:collect="always">
      <feGaussianBlur
         id="feGaussianBlur1453"
         stdDeviation="2.423007"
         inkscape:collect="always" />
    </filter>
    <linearGradient
       gradientTransform="translate(10,10)"
       gradientUnits="userSpaceOnUse"
       y2="136.35995"
       x2="364.83911"
       y1="136.35995"
       x1="324.16547"
       id="linearGradient1463"
       xlink:href="#linearGradient1461"
       inkscape:collect="always" />
    <filter
       height="2.8999614"
       y="-0.94998071"
       width="2.1908717"
       x="-0.59543584"
       id="filter1481"
       style="color-interpolation-filters:sRGB"
       inkscape:collect="always">
      <feGaussianBlur
         id="feGaussianBlur1483"
         stdDeviation="9.8429264"
         inkscape:collect="always" />
    </filter>
    <linearGradient
       inkscape:collect="always"
       xlink:href="#linearGradient1409"
       id="linearGradient1411-2"
       x1="340.64346"
       y1="168.00673"
       x2="364.16068"
       y2="168.00673"
       gradientUnits="userSpaceOnUse"
       gradientTransform="translate(157.25422,46.658329)" />
    <filter
       inkscape:collect="always"
       style="color-interpolation-filters:sRGB"
       id="filter1425-6"
       x="-0.65071845"
       width="2.3014369"
       y="-0.17895608"
       height="1.3579122">
      <feGaussianBlur
         inkscape:collect="always"
         stdDeviation="6.1028259"
         id="feGaussianBlur1427-9" />
    </filter>
    <filter
       height="1.0000014"
       y="-7.0112361e-07"
       width="1.0000083"
       x="-4.1600001e-06"
       id="filter1118-8"
       style="color-interpolation-filters:sRGB"
       inkscape:collect="always">
      <feGaussianBlur
         id="feGaussianBlur1120-0"
         stdDeviation="5.2e-05"
         inkscape:collect="always" />
    </filter>
  </defs>
  <sodipodi:namedview
     inkscape:window-maximized="1"
     inkscape:window-y="-8"
     inkscape:window-x="-8"
     inkscape:window-height="705"
     inkscape:window-width="1366"
     showgrid="true"
     inkscape:document-rotation="0"
     inkscape:current-layer="layer10"
     inkscape:document-units="px"
     inkscape:cy="372.4314"
     inkscape:cx="777.9211"
     inkscape:zoom="0.5"
     inkscape:pageshadow="2"
     inkscape:pageopacity="0.0"
     borderopacity="1.0"
     bordercolor="#666666"
     pagecolor="#ffffff"
     id="base">
    <inkscape:grid
       id="grid35"
       type="xygrid" />
  </sodipodi:namedview>
  <metadata
     id="metadata23">
    <rdf:RDF>
      <cc:Work
         rdf:about="">
        <dc:format>image/svg+xml</dc:format>
        <dc:type
           rdf:resource="http://purl.org/dc/dcmitype/StillImage" />
        <dc:title></dc:title>
      </cc:Work>
    </rdf:RDF>
  </metadata>
  <g
     inkscape:label="Background"
     id="layer10"
     inkscape:groupmode="layer">
    <rect
       ry="0"
       y="0"
       x="0"
       height="780"
       width="1380"
       id="rect1636"
       style="opacity:1;fill:#ffffff;fill-opacity:1;stroke-width:0;stroke-miterlimit:4;stroke-dasharray:none" />
  </g>
  <g
     sodipodi:insensitive="true"
     inkscape:groupmode="layer"
     id="layer7"
     inkscape:label="StripOfLand1"
     style="display:inline">
    <rect
       style="opacity:1;fill:url(#linearGradient984);fill-opacity:1;stroke-width:0;stroke-miterlimit:4;stroke-dasharray:none"
       id="rect900"
       width="1370"
       height="552"
       x="0"
       y="220"
       ry="0" />
  </g>
  <g
     inkscape:groupmode="layer"
     id="layer8"
     inkscape:label="StripOfLand2"
     sodipodi:insensitive="true">
    <path
       style="fill:url(#linearGradient1007);fill-opacity:1;stroke:#000000;stroke-width:0;stroke-linecap:butt;stroke-linejoin:miter;stroke-miterlimit:4;stroke-dasharray:none;stroke-opacity:1"
       d="M 1380,360 H 1280 L 1120,280 H 1000 L 840,320 H 0 v 460 h 1380 z"
       id="path993"
       sodipodi:nodetypes="ccccccccc" />
  </g>
  <g
     sodipodi:insensitive="true"
     inkscape:groupmode="layer"
     id="layer9"
     inkscape:label="StripOfLand3"
     style="display:inline;opacity:1">
    <path
       style="fill:url(#linearGradient1064);fill-opacity:1;stroke:#000000;stroke-width:0;stroke-linecap:butt;stroke-linejoin:miter;stroke-miterlimit:4;stroke-dasharray:none;stroke-opacity:1"
       d="M 0,400 120,280 h 180 l 100,60 h 160 l 60,60 h 400 l 160,80 h 200 V 780 H 0 Z"
       id="path1032"
       sodipodi:nodetypes="cccccccccccc" />
  </g>
  <g
     sodipodi:insensitive="true"
     inkscape:label="Sky"
     id="layer3"
     inkscape:groupmode="layer"
     style="display:inline">
    <rect
       style="display:inline;opacity:0.565359;fill:#ff6100;fill-opacity:1;stroke:none;stroke-width:0;stroke-linecap:round;stroke-linejoin:round;stroke-miterlimit:4;stroke-dasharray:none;stroke-opacity:1"
       id="rect1135"
       width="1366"
       height="212"
       x="0"
       y="0" />
  </g>
  <g
     style="display:inline"
     inkscape:label="Clouds"
     id="layer4"
     inkscape:groupmode="layer"
     sodipodi:insensitive="true" />
  <g
     style="display:inline;opacity:1;mix-blend-mode:normal"
     inkscape:label="Sun"
     id="layer5"
     inkscape:groupmode="layer"
     sodipodi:insensitive="true">
    <circle
       r="60"
       cy="160.06244"
       cx="463.08325"
       id="path1235"
       style="opacity:0.785256;fill:#ffffd9;fill-opacity:1;stroke:none;stroke-width:0;stroke-linecap:round;stroke-linejoin:round;stroke-miterlimit:4;stroke-dasharray:none;stroke-opacity:1" />
    <path
       id="path1382"
       d="m 223,109 1,3 h 2 v 2 h 2 l 1,1 v 43 0"
       style="opacity:0.532051;fill:none;fill-opacity:1;stroke:none;stroke-width:0;stroke-linecap:round;stroke-linejoin:round;stroke-miterlimit:4;stroke-dasharray:none;stroke-opacity:1" />
  </g>
  <g
     inkscape:groupmode="layer"
     id="layer2"
     inkscape:label="Mountains B2"
     style="display:inline"
     sodipodi:insensitive="true">
    <path
       style="opacity:0.30719;fill:url(#linearGradient897);fill-opacity:1;stroke:#000000;stroke-width:0;stroke-linecap:butt;stroke-linejoin:miter;stroke-miterlimit:4;stroke-dasharray:none;stroke-opacity:1"
       d="m 0,101.65095 15.010989,-5.424533 h 30.021978 50.03663 l 55.040293,38.915093 h 40.0293 115.08425 l 40.02931,21.22641 h 35.02564 l 25.01831,14.15095 90.06594,3.53773 L 560.41026,150 660.48352,85.61321 h 85.06227 l 30.02198,31.83962 35.46793,17.74671 29.57968,-0.058 10.00733,-17.68868 30.02198,-7.07547 145.10621,-3.53774 55.0403,-31.83962 h 75.055 l 85.0622,55.66038 L 1366,78.537739 V 124.5283 216.50943 L 0,217.68868 Z"
       id="path66"
       sodipodi:nodetypes="cccccccccccccccccccccccccccc" />
  </g>
  <g
     style="display:inline"
     id="layer1"
     inkscape:groupmode="layer"
     inkscape:label="Mountains"
     sodipodi:insensitive="true">
    <path
       sodipodi:nodetypes="ccccccccccccccccccccccccccccccccccccccccccccccccccccccccccccccccccccccccccccccccccccccccccccccccccccccccccccccccccccsccccccccccccccccccccccccccccccccccccccccccccccccccccccccccccccc"
       id="path108"
       d="m 0,209.98495 10,-4.89248 H 20 L 25,200.2 h 5 l 5,4.89247 h 10 l 2,-4.89247 2,-0.97849 v -2.93549 h 2 l 3,-2.93548 4,-0.9785 4,1.95699 v 2.93549 3.91397 l 1,0.9785 h 1 v -2.93548 l 1,-0.9785 h 2 v 0.9785 h 1 v 2.93548 l 1,1.95699 2,0.97849 3,1.95699 v 0.9785 h 16 v -4.89248 l 5,-1.95699 1,-0.97849 h 1 2 l 2,1.95699 3,0.97849 v 1.95699 2.93549 h 48 l 1,-0.9785 h 8 l 1,0.9785 h 11 l 7,-7.82796 2,-1.95699 h 2 V 200.2 h 1 v -10.76344 l 1,-0.9785 h 1 V 173.78065 126.8129 l 3,-4.89247 h 5 v -4.89247 l 2,-1.95699 h 2 v -4.89248 L 200,109.2 h 23 l 1,2.93548 h 2 v 1.95699 h 2 l 1,0.9785 v 10.76344 16.63441 13.69892 0 0.9785 l 1,0.97849 h 1 l 1,0.9785 h 2 l 1,-0.9785 h 1 l 1,-0.97849 h 5 l 1,0.97849 h 1 l 1,0.9785 h 4 1 l 2,-0.9785 h 5 l 1,0.9785 v 11.74193 l 1,0.9785 h 1 v 3.91397 0 h 3 v 26.41936 l 1,0.97849 h 2 l 1,0.9785 h 2 l 1,0.97849 2,2.93549 h 23 120 l 3,-12.72043 h 4 l 2,-6.84947 h 1 l 1,-0.97849 v -1.95699 l 3,-24.46236 1,-29.35484 2,-9.78495 1,9.78495 1,4.89247 v 2.93548 l 1,1.95699 v 22.50538 c 0,0 0,11.74193 5,11.74193 h 5 l 1,2.93549 v 6.84946 l 2,1.95699 h 2 l 1,-1.95699 v -9.78495 l 2,-2.93548 2,-0.97849 v -2.93549 h 2 l 1,-10.76344 2,-4.89247 2,-0.9785 h 2 v 0.9785 h 2 l 1,0.97849 v 1.95699 l 1,0.9785 h 2 v 21.52688 l 1,1.95699 1,2.93548 2,0.9785 21,0.97849 5,-14.67742 10,-4.89247 5,-14.67742 3,-0.9785 5,-3.91397 h 32 20 l 2,0.97849 1,1.95699 3,1.95699 h 3 l 2,4.89247 3,1.95699 h 5 l 2,0.9785 6,9.78494 1,23.48387 2,7.82796 5,4.89247 1,1.95699 2,0.9785 h 12 l 3,-2.93549 2,-0.97849 h 19 l 2,1.95699 1,0.97849 h 16 l 2,0.9785 6,-3.91398 h 14 l 7,-1.95699 h 26 l 6,1.95699 2,1.95699 h 4 l 2,0.97849"
       style="fill:url(#linearGradient987);fill-opacity:1;stroke:url(#linearGradient989);stroke-width:0;stroke-linecap:round;stroke-linejoin:round;stroke-miterlimit:4;stroke-dasharray:none;stroke-opacity:1" />
    <path
       id="path1978"
       d="m 253,159 -4,8 3,4 -9,9 8,7 -2,7 4,3 -2,10 15,4 -10,-8 4,-9 -5,-1 3,-14 -5,-2 2,-7 z"
       style="opacity:1;fill:none;fill-opacity:1;stroke:#ffffd9;stroke-width:0;stroke-linecap:butt;stroke-linejoin:round;stroke-miterlimit:4;stroke-dasharray:none;stroke-opacity:1;paint-order:markers stroke fill" />
    <path
       id="path2204"
       d="m 605,205 c 2.39302,2.82704 2.16454,1.20616 1.16729,2.53584 -0.0354,0.0471 0.0417,0.13511 0,0.17678 -0.0932,0.0932 -0.28047,0.0671 -0.35356,0.17677 -0.025,0.0376 -0.19913,1.06066 -0.17677,1.06066 0.11785,0 -0.11785,-0.35355 0,-0.35355 0.13176,0 0.0836,0.26038 0.17677,0.35355 0.25731,0.25731 0.72249,0.0154 0.88389,0.17678 0.0932,0.0932 0.0836,0.26038 0.17677,0.35355 0.0335,0.0335 2.39266,0 2.65165,0 0.0728,0 0.48354,0.0468 0.53033,0 0.32167,-0.32167 -0.51911,-1.0457 -0.53033,-1.06066 -0.19689,-0.26252 -0.66367,-0.84045 -0.88388,-1.06066 -0.0417,-0.0417 -0.13511,0.0417 -0.17678,0 -0.13815,-0.13815 -0.11845,-0.53214 -0.17677,-0.7071 -0.0646,-0.19373 -0.41571,-0.3584 -0.53033,-0.53033 -0.21431,-0.32147 -0.18242,-0.53597 -0.35356,-0.70711 C 607.17149,205.18129 605.46267,205.17269 605,205 Z"
       style="opacity:0.677419;fill:#40150d;fill-opacity:0.988235;stroke:#ffffd9;stroke-width:0;stroke-linecap:butt;stroke-linejoin:bevel;stroke-miterlimit:4;stroke-dasharray:none;stroke-opacity:1;paint-order:markers stroke fill" />
    <path
       id="path2234"
       d="m 520,170 c -0.17245,1.01923 -0.14007,0.484 0.077,2.00372 0.13708,0.95958 0.34787,1.91616 0.53033,2.82843 0.21593,1.07966 0,2.42911 0,3.53554 0,0.24498 -0.14067,1.09676 0,1.23743 0.10037,0.10038 2.23685,0.13827 2.65165,0 0.33312,-0.11104 1.12363,-0.65627 1.23743,-0.88388 0.0322,-0.0645 0.0716,-0.81229 0,-0.88389 -0.19044,-0.19044 -0.21897,-0.0211 -0.53033,-0.17677 -0.18829,-0.0942 -0.24737,-0.77771 -0.35355,-0.88389 -0.10967,-0.10967 -0.41204,-0.29374 -0.53033,-0.53033 -0.1312,-0.26239 -0.31668,-1.96298 0,-2.12132 0.403,-0.2015 2.24979,0.32941 2.65165,0.53033 0.28284,0.14143 0.77782,-0.14142 1.06066,0 0.10985,0.0549 0.99292,0.4213 1.06066,0.35356 0.0556,-0.0556 -0.52589,-0.69823 -0.53033,-0.70711 -0.0527,-0.10541 0.0833,-0.27022 0,-0.35355 -0.0417,-0.0417 -0.14409,0.049 -0.17678,0 -0.81251,-1.21878 0.22751,-0.12604 -0.35355,-0.70711 -0.18198,-0.18198 -0.34835,-0.17157 -0.53033,-0.35355 -0.21531,-0.21531 -0.0828,-0.39496 -0.35355,-0.53033 -0.31165,-0.15582 -0.78395,-0.25362 -1.06066,-0.53033 -0.10861,-0.10861 -0.11679,-0.41195 -0.35356,-0.53033 -0.20082,-0.10041 -0.36926,-0.11196 -0.53033,-0.35356 -0.94281,-1.41421 0.64818,0.64819 -0.53033,-0.53033 -0.0417,-0.0417 0.0527,-0.15042 0,-0.17677 -0.10541,-0.0527 -0.24814,0.0527 -0.35355,0 -0.0527,-0.0264 0.0417,-0.13511 0,-0.17678 -0.0833,-0.0833 -0.27022,0.0833 -0.35355,0 -0.1852,-0.1852 -0.3962,-0.57297 -0.53033,-0.70711 C 521.65816,168.81188 520.7275,169.76683 520,170"
       style="opacity:0.108871;fill:#ff6600;fill-opacity:0.988235;stroke:#ffffd9;stroke-width:0;stroke-linecap:butt;stroke-linejoin:bevel;stroke-miterlimit:4;stroke-dasharray:none;stroke-opacity:1;paint-order:markers stroke fill" />
    <path
       id="path2236"
       d="m 530,180 c 0.46358,0.28085 1.08947,0.39198 1.39074,0.84256 0.35938,0.53748 -0.26628,4.23814 0,5.3033 0.10326,0.41302 1.36706,2.57701 1.59099,2.65165 0.16771,0.0559 0.37222,-0.0791 0.53033,0 0.53945,0.26972 0.93165,0.53033 1.591,0.53033 0.16531,0 0.5322,0.35167 0.7071,0.17678 0.0971,-0.0971 0.056,-1.30223 0,-1.41422 -0.14134,-0.28268 -0.53041,-0.44206 -0.7071,-0.7071 -0.24144,-0.36216 -0.22349,-0.9306 -0.53033,-1.23744 -0.0417,-0.0417 -0.13512,0.0417 -0.17678,0 -0.0119,-0.0119 -0.68224,-1.16282 -0.70711,-1.23744 -0.0745,-0.2236 0.0572,-0.47844 0,-0.7071 -0.0872,-0.34876 -0.3171,-0.56405 -0.53033,-0.88389 -0.17482,-0.26223 -0.0281,-0.94005 -0.17678,-1.23743 -0.0745,-0.14908 -0.27901,-0.20449 -0.35355,-0.35356 -0.21769,-0.43539 0.51314,0.15958 -0.17678,-0.53033 -0.0932,-0.0932 -0.29462,-0.0589 -0.35355,-0.17677 -0.0791,-0.15812 0.0559,-0.36263 0,-0.53033 -0.0186,-0.0559 -0.13511,0.0417 -0.17678,0 -0.0589,-0.0589 -0.11785,-0.47141 -0.17677,-0.53033 -0.0417,-0.0417 -0.13511,0.0417 -0.17678,0 -0.35045,-0.35046 -0.35665,-0.88699 -0.70711,-1.23744 -0.0817,-0.0817 -0.42359,0.0534 -0.53033,0 -0.046,-0.023 -0.21536,-0.31497 -0.35355,-0.17678 -0.096,0.096 0.0164,1.23148 0.0235,1.45554 z"
       style="opacity:0.108871;fill:#ff6600;fill-opacity:0.988235;stroke:#ffffd9;stroke-width:0;stroke-linecap:butt;stroke-linejoin:bevel;stroke-miterlimit:4;stroke-dasharray:none;stroke-opacity:1;paint-order:markers stroke fill" />
    <path
       id="path2240"
       d="m 515,160 c -0.42897,0.0532 -0.99605,-0.16007 -1.28692,0.15969 -0.57031,0.62692 0.51611,1.56256 0.7071,1.94454 0.30723,0.61446 0.76244,2.35343 1.06066,2.65165 0.67668,0.67668 1.96103,0.98051 2.82843,1.41421 0.23212,0.11607 1.46548,1.00939 1.06066,1.41422 -0.28027,0.28027 -1.636,0.35355 -2.12132,0.35355 -0.28315,0 -0.98902,0.12421 -1.23744,0 -1.08241,-0.5412 -2.5276,-3.26107 -3.18198,-4.24264 -0.22669,-0.34004 0.128,-1.20699 0,-1.59099 -0.0186,-0.0559 -0.13511,0.0417 -0.17678,0 -0.0919,-0.0919 -0.0482,-0.91611 0,-1.06066 0.2107,-0.6321 0.62664,-0.93204 1.23744,-1.23744 0.10541,-0.0527 0.27022,0.0833 0.35356,0 0.0417,-0.0417 -0.0571,-0.1914 0,-0.17677 0.27204,0.0697 0.50439,0.24709 0.75659,0.37064"
       style="opacity:0.108871;fill:#ff6600;fill-opacity:0.988235;stroke:#ffffd9;stroke-width:0;stroke-linecap:butt;stroke-linejoin:bevel;stroke-miterlimit:4;stroke-dasharray:none;stroke-opacity:1;paint-order:markers stroke fill" />
    <path
       id="path2324"
       d="m 570,150 c -5.81943,-0.15763 -11.64143,0.15863 -17.39605,-0.80047 -3.23935,-0.53989 -8.84875,0 -12.37437,0 -1.36029,0 -3.27194,-0.33106 -4.5962,0 -1.47918,-0.64023 -0.40896,0.55804 -0.7071,0.70711 -0.47642,0.2382 -1.27039,-0.19896 -1.76777,0 -1.37365,0.54946 -2.65049,1.14847 -3.88909,1.76776 -0.33028,0.16514 -3.38391,1.56583 -2.82842,2.12132 0.43462,0.43463 5.94984,1.04048 7.07106,1.41422 1.29695,0.43231 2.81479,1.17624 4.24265,1.41421 2.24269,0.37378 2.54011,-0.14415 4.94974,1.06066 0.48937,0.24469 2.08391,-0.0782 2.47488,0 0.4181,0.0836 1.00453,0.50227 1.41421,0.70711 0.66603,0.33301 1.73512,-0.18494 2.47487,0 0.95225,0.23806 1.82139,0.70711 2.82843,0.70711 0.28846,0 1.69966,-0.13621 1.76777,0 0.24936,0.49873 0.11728,2.35929 0,2.82842 -0.36935,1.4774 -2.78788,3.80799 -3.53554,5.3033 -0.32311,0.64623 -0.57215,2.55853 -0.7071,2.82843 -0.0745,0.14907 -0.47141,0.2357 -0.35356,0.35355 0.25,0.25 0.70711,0 1.06066,0 0.50354,0 1.30098,0.1556 1.76777,0 1.44803,-0.48267 3.68182,-1.87748 4.94975,-2.82842 0.65067,-0.48801 1.11709,-0.21911 1.76777,-0.70711 0.53333,-0.4 0.85951,-1.04441 1.41421,-1.41421 0.30121,-0.20081 1.68615,-0.417 2.12132,-0.70711 0.0981,-0.0654 -0.0833,-0.27022 0,-0.35355 0.54747,-0.54748 3.36537,-3.27368 3.88909,-3.53554 0.10541,-0.0527 0.30085,0.10541 0.35355,0 0.10541,-0.21082 -0.10541,-0.49629 0,-0.7071 0.31036,-0.62073 3.57833,-0.18748 4.24264,-0.35356 1.92628,-0.48157 3.43127,-1.61516 4.94975,-2.12132 0.33953,-0.11318 1.07489,0.16966 1.41421,0 0.11167,-0.0558 1.03749,-0.68393 1.06066,-0.70711 0.0833,-0.0833 -0.0527,-0.24814 0,-0.35355 0.14907,-0.29814 0.6017,-0.39088 0.70711,-0.70711 0.68933,-2.06798 -2.31351,-2.13364 -3.18198,-2.82842 -2.01626,1.60506 -0.85507,-1.20862 -1.06066,-1.41422 C 573.11118,150.26132 572.00995,149.8602 570,150 Z"
       style="opacity:0.108871;fill:#ff6600;fill-opacity:0.988235;stroke:#ffffd9;stroke-width:0;stroke-linecap:butt;stroke-linejoin:bevel;stroke-miterlimit:4;stroke-dasharray:none;stroke-opacity:1;paint-order:markers stroke fill" />
    <path
       id="path2332"
       d="m 510,175 c 1.76356,1.77618 3.88544,3.31253 5.5,5.25 0.19235,0.23082 0.25963,0.56972 0.5,0.75 0.13333,0.1 0.33333,0 0.5,0 0.33333,0.25 0.70537,0.45537 1,0.75 0.37731,0.37731 0.62269,0.87269 1,1.25 0.26352,0.26352 0.73648,0.23648 1,0.5 0.13176,0.13176 0.11824,0.36824 0.25,0.5 0.51079,0.51079 1.73185,1.37823 2.25,2 0.23858,0.2863 0.26719,0.70899 0.5,1 0.1164,0.14551 0.36824,0.11824 0.5,0.25 0.25,0.33333 0.5,0.66667 0.75,1 0,0.0833 -0.0462,0.18066 0,0.25 0.95947,1.4392 1.9102,1.82041 2.75,3.5 0.3,0.6 1.2,0.9 1.5,1.5 0.47743,0.95487 0.41451,0.62177 1,1.5 0.13867,0.20801 -0.11181,0.52639 0,0.75 0.0745,0.14907 0.38215,-0.11785 0.5,0 0.35671,0.35671 0.71707,1.0756 1,1.5 0.63748,0.95623 0.58167,2.01534 1.5,2.75 0.76069,0.60855 1.59978,2.02467 2.25,3 0.14617,0.21926 0.0143,0.63215 0.25,0.75 0.14907,0.0745 0.36132,-0.0925 0.5,0 0.73176,0.48784 0.0512,0.35243 0.25,0.75 0.18784,0.37569 0.5815,0.413 0.75,0.75 0.0698,0.13951 1.20498,1.77251 0.75,2 -1.49221,0.7461 -5.16416,0.25 -7,0.25 -4.26413,0 -8.50686,0.0764 -12.75,-0.25 -2.26229,-0.17402 -4.78051,0.4439 -7,0 -2.91222,-0.58244 -6.22686,-0.25 -9.25,-0.25 -2.56389,0 -6.73315,-0.37781 -9,0 -1.25201,0.20867 -2.22664,0.5 -3.5,0.5 -1.85779,0 -4.18962,-0.36208 -6,0 -0.74191,0.14838 -1.16893,0.25 -2,0.25 -0.28255,0 -1.27464,0.47536 -1.5,0.25 -0.39375,-0.39374 0.22174,-2.19565 0,-2.75 -0.11159,-0.27897 -0.36563,-0.48126 -0.5,-0.75 -0.26,-0.52 0,-1.9488 0,-2.5 0,-0.98202 -0.25,-1.75732 -0.25,-2.75 0,-0.5 0,-1 0,-1.5 0,-0.25 0.25,-0.75 0,-0.75 -0.0833,0 -0.0833,0.25 0,0.25 0.11785,0 0.13375,-0.23063 0.25,-0.25 0.411,-0.0685 0.83333,0 1.25,0 1.16667,0 2.33333,0 3.5,0 1.35056,0 2.90115,-0.13489 4.25,0 3.09588,0.30959 -0.73735,0.14466 1.75,0.5 0.82496,0.11785 1.67176,-0.092 2.5,0 1.54792,0.17199 3.89338,0.97549 5,-0.5 0.40311,-0.53748 0.62732,-1.19098 1,-1.75 1.09599,-1.64399 2.38185,-3.12361 3.5,-4.75 0.3167,-0.46065 0.43991,-1.03487 0.75,-1.5 0.31195,-0.46792 0.93805,-1.28208 1.25,-1.75 0.13074,-0.19612 0.41246,-0.28116 0.5,-0.5 0.0928,-0.23212 -0.049,-0.50486 0,-0.75 -0.19786,-0.46555 0.43482,-0.45669 0.5,-0.75 0.14574,-0.65586 0.10425,-1.34414 0.25,-2 0.15236,-0.68562 1.00296,-1.38239 1.25,-2 0.0928,-0.23212 -0.0687,-0.50962 0,-0.75 0.10238,-0.35834 0.36159,-0.65398 0.5,-1 0.18667,-0.46668 -0.0302,-1.32966 0.25,-1.75 0.13074,-0.19612 0.36925,-0.30388 0.5,-0.5 0.0462,-0.0693 0,-0.16667 0,-0.25 0.0833,-0.25 0.10382,-0.53074 0.25,-0.75 0.10336,-0.15504 0.36824,-0.11824 0.5,-0.25 0.87571,-0.87571 1.21032,-1 2.5,-1 z"
       style="opacity:0.108871;fill:#ff6600;fill-opacity:0.988235;stroke:#ffffd9;stroke-width:0;stroke-linecap:butt;stroke-linejoin:bevel;stroke-miterlimit:4;stroke-dasharray:none;stroke-opacity:1;paint-order:markers stroke fill" />
    <path
       id="path2336"
       d="m 255,160 c 0.25,0.83333 0.5677,1.64929 0.75,2.5 0.26954,1.25786 -0.14277,2.9283 -0.5,4 -0.39083,1.1725 0,4.59048 0,6 0,0.75 0,1.5 0,2.25 0,0.33333 0,0.66667 0,1 0,0.0833 -0.0833,0.25 0,0.25 0.0833,0 0.0589,-0.30893 0,-0.25 -0.13176,0.13176 -0.095,0.39664 -0.25,0.5 -0.4632,0.3088 -1.29476,-0.18159 -1.5,-0.25 -0.32596,-0.10865 -0.71411,-0.0594 -1,-0.25 -0.15504,-0.10336 -0.095,-0.39664 -0.25,-0.5 -0.37944,-0.25296 -0.49319,0.007 -1,-0.5 -0.25,-0.25 -0.43377,-0.90811 -0.75,-0.75 -0.26874,0.13437 -0.36563,0.48126 -0.5,0.75 -0.14907,0.29814 0.0808,0.67662 0,1 -0.36576,1.46303 -0.092,-0.56607 -0.5,0.25 -0.0745,0.14907 0.0527,0.34189 0,0.5 -0.21653,0.64958 -0.70019,1.40037 -1,2 -0.0373,0.0745 0,0.16667 0,0.25 0,0.16667 0.0745,0.35093 0,0.5 -0.0373,0.0745 -0.19108,-0.0589 -0.25,0 -0.10178,0.10178 -0.41998,0.83996 -0.5,1 -0.1118,0.22361 0.0791,0.51283 0,0.75 -0.0739,0.22168 -0.84816,0.44939 -1,0.5 -0.23717,0.0791 -0.55,0.15 -0.75,0 -0.60522,-0.45391 -0.72857,-1.47857 -1.25,-2 -0.10476,-0.10476 -0.59849,-0.17424 -0.75,-0.25 -1.04044,-0.52022 0.26726,0.0173 -0.25,-0.5 -0.0591,-0.0591 -2.01769,1.13384 -2.25,1.25 -0.49802,0.24901 -0.62632,0.96974 -1,1.25 -0.42047,0.31535 -0.82953,0.18464 -1.25,0.5 -0.495,0.37125 -0.97223,0.93334 -1.5,1.25 -0.29463,0.17678 -0.72513,0.0438 -1,0.25 -0.52041,0.39031 -1.09018,1.28006 -1.75,1.5 -0.15811,0.0527 -0.38215,-0.11785 -0.5,0 -0.11785,0.11785 0.11785,0.38215 0,0.5 -0.0256,0.0256 -0.87535,0.18768 -1,0.25 -0.52286,0.26143 -0.8849,0.8849 -1.25,1.25 -0.17331,0.17331 -1.01256,-0.0791 -1.25,0 -0.0732,0.0244 -0.29882,0.45118 -0.5,0.25 -0.30599,-0.30599 -0.76074,-3.39111 -1,-3.75 -0.13074,-0.19612 -0.36926,-0.30388 -0.5,-0.5 -0.1,-0.15 0.125,-0.625 0,-0.75 -0.0569,-0.0569 -5.74151,-0.003 -5.75,0 -0.59424,0.22284 -1.13772,0.58301 -1.75,0.75 -0.32159,0.0877 -0.66667,0 -1,0 -0.5,0.0833 -1.01448,0.10434 -1.5,0.25 -0.3162,0.0949 -4.75,1.86174 -4.75,1.25 0,-0.10363 2.12895,-2.87895 2.5,-3.25 0.13176,-0.13176 0.36824,-0.11824 0.5,-0.25 0.40262,-0.40263 0.50381,-1.50763 0.75,-2 0.0373,-0.0745 0.20377,0.0693 0.25,0 0.2742,-0.4113 1.01397,-1.77794 1.25,-2.25 0.1,-0.2 -0.1,-0.55 0,-0.75 0.42847,-0.85694 1.07153,-1.64306 1.5,-2.5 0.12818,-0.25637 0.12182,-0.74363 0.25,-1 0.27638,-0.55276 0.15516,-0.0776 0.5,-0.25 0.29547,-0.14774 0.60218,-0.85218 0.75,-1 0.9162,-0.9162 3.01583,-0.0106 3.75,-0.5 0.15504,-0.10336 0.095,-0.39664 0.25,-0.5 0.21926,-0.14618 0.93634,-0.0637 0.75,-0.25 -0.19445,-0.19444 -1.25,2.41667 0.5,-0.5 0.1715,-0.28583 -0.10541,-0.68377 0,-1 0.40202,-1.20606 0.73036,-2.4509 1.25,-3.75 0.10357,-0.25893 -0.18784,-1.06216 0,-1.25 0.31304,-0.31304 0.61614,-0.55807 1,-0.75 0.42241,-0.2112 1.24383,0 1.75,0 1.32001,0 7.08614,0.38795 8.25,0 1.04057,-0.34686 3.25329,0.12335 4,-0.25 1.21788,-0.60894 2.87559,-0.4064 4.25,-0.75 0.4638,-0.11595 1.04854,0.15049 1.5,0 0.49231,-0.1641 0.50769,-0.3359 1,-0.5 0.375,-0.125 0.875,0.125 1.25,0 0.0791,-0.0264 -0.0745,-0.21273 0,-0.25 0.31381,-0.1569 0.43619,-0.0931 0.75,-0.25 0.26553,-0.13277 1.04334,0.0689 1.25,0 0.0791,-0.0264 0,-0.16667 0,-0.25 0.33333,-0.0833 0.66667,-0.16667 1,-0.25 z"
       style="opacity:0.108871;fill:#ff6600;fill-opacity:0.988235;stroke:#ffffd9;stroke-width:0;stroke-linecap:butt;stroke-linejoin:bevel;stroke-miterlimit:4;stroke-dasharray:none;stroke-opacity:1;paint-order:markers stroke fill" />
    <path
       id="path2338"
       d="m 220,110 c -1,0.66667 -1.97643,1.37011 -3,2 -1.13919,0.70104 -8.93758,0.25 -10.5,0.25 -0.4077,0 -2.23081,-0.26919 -2.5,0 -0.35441,0.35441 0.46356,8.55466 0,9.25 -0.34685,0.52027 -0.89851,0.97276 -1.25,1.5 -0.32186,0.48279 -0.39991,1.39991 -0.75,1.75 -0.13176,0.13176 -0.36824,0.11824 -0.5,0.25 -0.38355,0.38355 -0.60583,1.10583 -1,1.5 -0.0833,0.0833 -0.66667,0.16667 -0.75,0.25 -0.13176,0.13176 -0.11824,0.36824 -0.25,0.5 -0.11785,0.11785 -0.38215,-0.11785 -0.5,0 -0.13176,0.13176 -0.11824,0.36824 -0.25,0.5 -0.0461,0.0461 -0.70394,0.20393 -0.75,0.25 -0.0589,0.0589 0.0693,0.20377 0,0.25 -0.21927,0.14618 -0.53074,0.10382 -0.75,0.25 -0.15504,0.10336 -0.11824,0.36824 -0.25,0.5 -0.197,0.197 -0.63511,0.38511 -0.75,0.5 -0.45935,0.45935 0.71554,2.01295 1,2.25 0.37589,0.65831 1.25442,0.35354 1.75,0.75 0.79174,0.63339 1.1338,1.58028 2.25,2.25 0.26606,0.15964 3.1041,1.8541 3.25,2 0.28568,0.28568 0.033,3.23584 0,3.5 -0.31427,2.51416 -0.12837,-0.60815 -0.5,1.25 -0.0972,0.48611 0.12963,1.2963 0,1.75 -0.0825,0.2889 -0.38164,0.47383 -0.5,0.75 -0.43302,1.01039 -0.51759,2.83796 -0.75,4 -0.61492,3.0746 -0.30538,6.38764 -0.75,9.5 -0.14884,1.04189 -0.0339,2.16939 -0.25,3.25 -0.23932,1.1966 -0.61695,2.35084 -1,3.5 -0.14903,0.44709 0.0924,1.03792 0,1.5 0.23313,0.55611 -0.38286,1.03145 -0.5,1.5 -0.19493,0.77973 0.15737,1.71312 0,2.5 -0.0429,0.21461 -0.4295,0.53849 -0.5,0.75 -0.0591,0.17721 -0.25,3.1341 -0.25,3.5 0,0.4043 -0.23337,2.26663 0,2.5 0.0589,0.0589 0.19107,-0.0589 0.25,0 0.0225,0.0225 0,2.58511 0,3.25 0,0.5 0,1 0,1.5 0,0.0833 -0.0833,0.25 0,0.25 0.35337,0 0.86395,-0.72789 1,-1 0.43759,-0.87517 0.96071,-1.96071 1.75,-2.75 0.28334,-0.28334 0.79283,-0.33566 1,-0.75 0.0373,-0.0745 -0.0589,-0.19107 0,-0.25 0.33283,-0.33283 1.15362,-0.73043 1.5,-1.25 0.5038,-0.7557 -1.48388,0.57259 0.5,-0.75 0.13867,-0.0925 0.36132,0.0925 0.5,0 0.94101,-0.62734 1.44751,-1.72375 2.5,-2.25 0.14907,-0.0745 0.36132,0.0925 0.5,0 0.15504,-0.10336 0.15413,-0.34022 0.25,-0.5 0.16667,-0.25 0.33333,-0.5 0.5,-0.75 0.0833,0 0.19107,0.0589 0.25,0 0.21246,-0.21246 0.28754,-0.96246 0.5,-0.75 0.125,0.125 -0.0625,0.5625 0,0.75 0.47309,1.41926 0.7795,3.2205 1.25,2.75 0.61448,-0.61448 1.02327,-1.53491 1.5,-2.25 0.4116,-0.61739 1.50649,-1.26947 1.75,-2 0.0527,-0.15811 -0.0925,-0.36133 0,-0.5 0.10336,-0.15504 0.36824,-0.11824 0.5,-0.25 0.22305,-0.22305 1.24474,-1.36711 1.5,-1.75 0.47896,-0.71843 0.94709,-1.69709 1.5,-2.25 0.21246,-0.21246 0.53754,-0.28754 0.75,-0.5 0.1935,-0.1935 0.10965,-0.96929 0.25,-1.25 0.0463,-0.0926 1.40014,-1.25036 1.5,-1.5 0.12761,-0.31902 0.0963,-0.69268 0.25,-1 0.0373,-0.0745 0.19107,0.0589 0.25,0 0.16368,-0.16368 0.15547,-0.57774 0.5,-0.75 0.15094,-0.0755 0.63443,0.11557 0.75,0 0.0589,-0.0589 -0.0589,-0.19107 0,-0.25 0.44511,-0.44511 1.40237,-0.15237 1.75,-0.5 0.63769,-0.63769 0.33121,-3.98727 0.5,-5 0.25215,-1.51288 0.32669,-1.26843 0.75,-2.75 0.19455,-0.68092 0.075,-1.5501 0.25,-2.25 0.19099,-0.76396 0.76905,-1.55715 1,-2.25 0.28635,-0.85905 0.16518,-1.66294 0.5,-2.5 0.50826,-1.27065 -0.003,1.26087 0.5,-0.75 0.13111,-0.52443 -0.1989,-1.25274 0,-1.75 0.0875,-0.21884 0.42546,-0.27639 0.5,-0.5 0.13716,-0.41149 0.19146,-4.5799 0,-5.25 -0.46753,-1.63635 -1.95227,-2.44811 -2.5,-4 -0.31009,-0.87858 -0.30998,-1.83789 -0.5,-2.75 -0.69418,-3.33204 -1.45291,-6.71744 -2,-10 -0.052,-0.31201 -0.68257,-1.08142 -0.75,-1.25 -0.20605,-0.51512 -0.0767,-1.22994 -0.25,-1.75 -0.58264,-1.7479 -0.99442,-1.99442 -2.25,-3.25 -0.67523,-0.67523 -0.38013,-2.72947 -0.25,-3.25 z"
       style="opacity:0.108871;fill:#ff6600;fill-opacity:0.988235;stroke:#ffffd9;stroke-width:0;stroke-linecap:butt;stroke-linejoin:bevel;stroke-miterlimit:4;stroke-dasharray:none;stroke-opacity:1;paint-order:markers stroke fill" />
    <path
       id="path2348"
       d="m 620,195 60,55"
       style="opacity:0.387097;fill:#2b1100;fill-opacity:0.988235;stroke:#ffffd9;stroke-width:0;stroke-linecap:butt;stroke-linejoin:bevel;stroke-miterlimit:4;stroke-dasharray:none;stroke-opacity:1;paint-order:markers stroke fill" />
    <path
       id="path2354"
       d="m 595,165 c -1.28624,-0.67063 -2.61241,-1.26969 -3.85873,-2.01189 -0.2864,-0.17055 -0.40073,-0.5758 -0.70711,-0.7071 -2.67435,-1.14615 -6.03935,0.0464 -8.83883,-0.35356 -1.17091,-0.16727 -4.39978,-0.98209 -5.65686,-0.35355 -0.78613,0.39306 -0.72568,1.07924 -1.06066,1.41421 -0.0833,0.0833 -0.2357,0 -0.35355,0 -0.2357,0.11785 -0.56093,0.13429 -0.70711,0.35356 -0.13074,0.19611 0.10541,0.49628 0,0.7071 -0.0822,0.16443 -1.45323,0.82476 -1.76777,1.06066 -0.94107,0.70581 -2.39874,2.04519 -3.18198,2.82843 -1.49617,-0.56256 -0.50639,1.11314 -0.7071,1.41421 -0.53832,0.80748 -1.16588,0.81233 -1.76777,1.41422 -0.41667,0.41666 -0.53361,1.15069 -1.06066,1.41421 -0.21428,0.10714 -0.91251,0.2054 -1.06066,0.35355 -0.0833,0.0833 0.0833,0.27022 0,0.35356 -0.88835,0.88835 -2.69741,2.07764 -3.88909,2.47487 -1.13872,0.37958 -2.47868,0.53223 -3.53553,1.06066 -0.83167,0.41584 -2.29856,-0.29447 -3.18198,0 -0.93906,0.31302 -1.35685,0.58288 -2.47488,0.70711 -0.70278,0.0781 -1.4505,-0.22361 -2.12132,0 -0.78177,0.26059 -1.34185,0.86579 -2.12132,1.06066 -1.16724,0.29181 -2.17071,-0.25477 -2.82842,1.06066 -1.32462,2.64922 -0.79201,5.98675 0.7071,8.48528 0.1715,0.28583 0.53561,0.42128 0.70711,0.70711 0.25,0.41666 0.01,1.07062 0.35355,1.41421 0.18634,0.18634 0.56093,0.13429 0.70711,0.35355 0.13074,0.19612 0,0.47141 0,0.70711 0.11785,0.35355 0.12074,0.76965 0.35355,1.06066 0.26545,0.33181 0.84204,0.34274 1.06066,0.70711 0.35569,0.59281 0,2.83444 0,3.53553 0,1.3527 0.16119,1.81717 0.70711,3.18198 0.81859,2.04648 -0.84676,4.10299 1.41421,6.36396 1.09835,1.09835 11.05547,0.70711 13.08148,0.70711 4.12479,0 8.24958,0 12.37437,0 2.48363,0 5.02978,0.24516 7.42462,-0.35355 0.58754,-0.14689 4.72912,0.22062 4.94975,0 0.18634,-0.18634 0.11785,-0.58926 0.35355,-0.70711 1.03851,-0.51926 3.12782,0.018 4.24264,-0.35355 1.24436,-0.41479 1.35076,-2.05787 2.12132,-2.82843 0.0833,-0.0833 0.32497,0.11433 0.35355,0 0.14292,-0.57166 -0.18633,-1.20875 0,-1.76777 0.75175,-2.25523 0.35356,-5.01524 0.35356,-7.42462 0,-3.43498 -0.2082,-6.88255 0.35355,-10.25305 0.24055,-1.4433 -0.40113,-3.19222 0,-4.59619 0.81386,-2.84851 0.70711,-3.02669 0.70711,-6.01041 0,-2.87591 -2.19764,-3.63034 -1.44457,-7.1805 z"
       style="opacity:0.372984;fill:#501616;fill-opacity:0.988235;stroke:#ffffd9;stroke-width:0;stroke-linecap:butt;stroke-linejoin:bevel;stroke-miterlimit:4;stroke-dasharray:none;stroke-opacity:1;paint-order:markers stroke fill" />
    <path
       id="path2356"
       d="m 540,185 c 1.30584,0.67187 1.09357,5.36861 2.3509,6.62594 0.16667,0.16666 0.49629,-0.10541 0.70711,0 0.1315,0.0657 0.24487,1.19684 0.35355,1.41421 0.28936,0.57872 0.7713,1.18905 1.06066,1.76777 0.53783,1.07566 0.7682,2.71925 1.06066,3.88908 0.15115,0.60461 -0.37637,2.09851 0,2.47488 0.0833,0.0833 0.30085,-0.10541 0.35355,0 0.10541,0.21082 -0.0875,0.48826 0,0.70711 0.15781,0.39452 0.51708,0.6806 0.70711,1.06066 0.10541,0.21081 0,0.9428 0,0.7071 0,-0.2357 0.10541,-0.91792 0,-0.7071 -0.21731,0.43461 -0.25826,0.93773 -0.35355,1.41421 -0.0231,0.11556 0.10541,0.30085 0,0.35355 -0.71641,0.35821 -4.30703,0 -5.3033,0 -1.11659,0 -3.92071,0.51452 -4.94975,0 -0.44766,-0.22383 -0.35356,-2.5073 -0.35356,-3.18198 0,-1.07686 -0.45392,-3.68834 0,-4.59619 0.11786,-0.2357 0.56094,-0.13429 0.70711,-0.35356 0.27675,-0.41511 -0.22569,-1.31639 0,-1.76776 0.44257,-0.88514 1.09318,-1.86533 1.41422,-2.82843 0.11317,-0.33953 -0.16967,-1.07489 0,-1.41421 0.19002,-0.38006 0.51707,-0.6806 0.7071,-1.06066 0.13392,-0.26783 -0.0734,-0.76724 0,-1.06066 C 538.89201,186.72315 538.7037,186.44731 540,185 Z"
       style="opacity:0.372984;fill:#501616;fill-opacity:0.988235;stroke:#ffffd9;stroke-width:0;stroke-linecap:butt;stroke-linejoin:bevel;stroke-miterlimit:4;stroke-dasharray:none;stroke-opacity:1;paint-order:markers stroke fill" />
    <path
       id="path2360"
       d="m 565,205 c 0.41667,0.0833 0.91819,0.51544 1.25,0.25 0.32536,-0.26029 0,-0.83333 0,-1.25 0,-1.90115 1.44876,-2.62191 2,-4 0.0833,-0.25 0.16666,-0.5 0.25,-0.75 0.0833,-0.0833 0.19729,-0.14459 0.25,-0.25 0.14184,-0.28368 0.28918,-1.82836 0.5,-2.25 0.10541,-0.21082 0.35858,-0.31144 0.5,-0.5 0.33541,-0.44721 0.43991,-1.03487 0.75,-1.5 0.42624,-0.63936 1.15925,-1.31849 1.5,-2 0.0745,-0.14907 -0.0924,-0.36133 0,-0.5 0.10336,-0.15504 0.39664,-0.095 0.5,-0.25 0.0924,-0.13868 -0.0924,-0.36133 0,-0.5 0.0767,-0.11508 1.41704,-1.16704 1.5,-1.25 0.29463,-0.29463 0.37732,-0.81366 0.75,-1 1.67476,-0.83738 3.81955,-0.5 5.75,-0.5 0.4498,0 1.08266,0.13911 1.5,0 0.85297,-0.28432 2.11792,-1.11792 2.75,-1.75 0.13176,-0.13176 0.10093,-0.3882 0.25,-0.5 0.21082,-0.15811 0.52403,-0.11442 0.75,-0.25 0.89781,-0.53869 1.4522,-1.27373 2.5,-1.75 0.46146,-0.20976 1.06534,0.0108 1.5,-0.25 0.35729,-0.21437 0.61702,-0.58587 1,-0.75 0.71795,-0.30769 0.53846,0.10256 1,0 0.67082,-0.14907 1.33703,-0.31919 2,-0.5 1.49186,-0.40687 3.04166,-1.72917 4.5,-1 0.0745,0.0373 0.20377,-0.0693 0.25,0 0.43377,0.65066 0.0875,1.09996 0.25,1.75 -0.15068,0.45248 0.40498,0.46496 0.5,0.75 0.3618,1.08542 0.037,4.60208 -0.25,5.75 -0.25275,1.011 -0.0165,7.31726 0.25,8.25 0.10238,0.35834 0.39762,0.64166 0.5,1 0.26723,0.93532 -0.20315,1.84371 0.25,2.75 0.16666,0.33333 -0.16667,0.91667 0,1.25 0.10541,0.21082 0.41246,0.28116 0.5,0.5 0.0928,0.23212 -0.0606,0.50746 0,0.75 0.0286,0.11433 0.19729,0.14459 0.25,0.25 0.28507,0.57013 -0.1876,1.7188 -0.75,2 -1.64627,0.82313 -9.62961,0.75 -11.5,0.75 -6.25,0 -12.5,0 -18.75,0 -0.27462,0 -5.15538,0.0946 -5.25,0 -0.46016,-0.46016 0.39576,-2.54151 0.5,-2.75 z"
       style="opacity:0.372984;fill:#501616;fill-opacity:0.988235;stroke:#ffffd9;stroke-width:0;stroke-linecap:butt;stroke-linejoin:bevel;stroke-miterlimit:4;stroke-dasharray:none;stroke-opacity:1;paint-order:markers stroke fill" />
    <path
       id="path2364"
       d="m 575,210 c 0.43372,-5.9666 0.25,-12.00362 0.25,-18 0,-1.21929 0.3633,-3.91011 0,-5 -0.1147,-0.34411 -1.16996,-0.69499 -1.5,-0.75 -1.22486,-0.20414 -11.57858,-0.67142 -12.25,0 -0.10298,0.10297 -0.19445,0.58333 -0.25,0.75 -0.0955,0.28662 -0.3718,1.3718 -0.5,1.5 -0.0589,0.0589 -0.21273,-0.0745 -0.25,0 -0.15217,0.30433 -0.0859,0.67169 -0.25,1 -0.22815,0.4563 0,1.7746 0,2.25 0,2.48883 0.2481,8.25568 0,9 -0.0433,0.12994 -2.37175,0 -2.75,0 -2.17921,0 -4.38433,-0.18284 -6.25,0.75 -0.14907,0.0745 -0.35093,-0.0745 -0.5,0 -0.51432,0.25716 -0.54709,0.84417 -0.75,1.25 -0.3812,0.76239 -0.19819,-0.45724 -0.5,0.75 -0.25218,1.00873 -0.19723,5.30278 0.5,6 0.17677,0.17678 0.51283,-0.0791 0.75,0 0.1514,0.0505 0.87848,0.41899 1,0.5 0.34669,0.23112 0.59258,0.6627 1,0.75 2.55184,0.54682 6.06278,-0.38389 8.75,0 0.82579,0.11797 10.39209,0.67896 11.25,0.25 0.24816,-0.12408 0.97272,-0.22272 1,-0.25 0.4616,-0.4616 -0.11399,-0.068 1.25,-0.75 z"
       style="opacity:0.372984;fill:#501616;fill-opacity:0.988235;stroke:#ffffd9;stroke-width:0;stroke-linecap:butt;stroke-linejoin:bevel;stroke-miterlimit:4;stroke-dasharray:none;stroke-opacity:1;paint-order:markers stroke fill" />
    <path
       id="path2368"
       d="m 425,210 c 1.17779,-1.14728 1,-1.36291 1,-2.75 0,-0.31728 0.18935,-6.12871 0.25,-6.25 0.19923,-0.39847 1.0805,-2.04025 1.5,-2.25 0.22361,-0.1118 0.51283,0.0791 0.75,0 0.82603,-0.27534 1.80772,-0.36544 2.25,-1.25 0.1118,-0.22361 -0.0928,-0.51788 0,-0.75 0.11159,-0.27897 0.38841,-0.47103 0.5,-0.75 0.54749,-1.36874 0.5,-5.59571 0.5,-7.25 0,-0.47769 -0.0886,-6.16143 0,-6.25 0.13176,-0.13176 0.32322,-0.19108 0.5,-0.25 0.946,-0.31533 9.45417,-0.54582 10,0 0.41999,0.41999 0.11251,1.20006 0.25,1.75 0.47192,1.8877 -0.21768,8.31464 0.25,9.25 0.0373,0.0745 0.17546,-0.0373 0.25,0 1.18475,0.59238 0.35908,0.75 2,0.75 0.67913,0 2.73225,-0.34517 3.25,0 0.19611,0.13074 0.28918,0.39459 0.5,0.5 0.57111,0.28556 2.09088,0 2.75,0 0.10294,0 0.68382,0.0662 0.75,0 0.0589,-0.0589 -0.0745,-0.21273 0,-0.25 0.40047,-0.20024 0.72637,0.0473 1,-0.5 0.44887,-0.89774 -0.27791,-3.13837 0,-4.25 0.22742,-0.90968 0.5181,-1.82242 0.75,-2.75 0.26214,-1.04858 -0.095,-2.21508 0.25,-3.25 0.28785,-0.86356 0.51439,-2.92146 1.5,-3.25 0.35086,-0.11696 0.92077,0.16462 1.25,0 0.33458,-0.16729 0.5949,-0.5949 0.75,-0.75 0.11785,-0.11785 0.35093,0.0745 0.5,0 0.31829,-0.15915 1.08231,-0.99846 1.25,-1.25 0.14436,-0.21654 0.12898,-0.75796 0.25,-1 0.41917,-0.83834 1.09942,-1.69884 1.5,-2.5 1.05273,-2.10547 0.5,-6.79001 0.5,-9.25 0,-0.5863 -0.0589,0.11785 0.25,-0.5 0.76226,-0.17698 0.0963,-0.69268 0.25,-1 0.31037,-0.62073 2.59028,-0.71991 3.25,-0.5 0.63288,0.21096 0.75,2.74299 0.75,3.25 0,0.57347 -0.20725,1.48187 0,2 0.13841,0.34602 0.39762,0.64166 0.5,1 0.16025,0.56089 -0.0825,1.17253 0,1.75 0.0858,0.60058 0.40026,1.15158 0.5,1.75 0.18298,1.09787 0,2.394 0,3.5 0,2.25 0,4.5 0,6.75 0,1.28403 0.25,2.36201 0.25,3.5 0,0.5 0,1 0,1.5 0,0.0833 -0.0833,0.25 0,0.25 0.0833,0 -0.0833,-0.25 0,-0.25 0.11785,0 0.14459,0.19729 0.25,0.25 0.76546,0.38273 2.62348,0 3.5,0 0.25,0 0.57322,-0.17678 0.75,0 0.0589,0.0589 -0.0589,0.19107 0,0.25 0.58156,0.58156 1.20869,0.87393 0.75,2.25 -0.0373,0.1118 -0.21273,0.1382 -0.25,0.25 -0.12543,0.37628 0.0965,0.86379 0,1.25 -0.10306,0.41223 -0.55046,0.94954 -0.25,1.25 0.43174,0.43174 3.08656,0.0433 3.5,0.25 0.4613,0.23065 0.25034,1.12552 0.5,1.5 1.65829,1.65829 -0.2357,-0.47141 0.5,1 0.0373,0.0745 0.16667,0 0.25,0 0.0833,0.0833 0.21273,0.1382 0.25,0.25 0.47186,1.41557 0.5,2.86816 0.5,4.5 0,2.25 0,4.5 0,6.75 0,0.15097 0.0523,1.99128 0,2 -2.74318,0.4572 -5.93153,0 -8.75,0 -4.27738,0 -8.80964,0.34862 -13,-0.25 -0.84941,-0.12135 -1.89128,0 -2.75,0 -2.5,0 -5,0 -7.5,0 -6.91667,0 -13.83333,0 -20.75,0 z"
       style="opacity:0.372984;fill:#501616;fill-opacity:0.988235;stroke:#ffffd9;stroke-width:0;stroke-linecap:butt;stroke-linejoin:bevel;stroke-miterlimit:4;stroke-dasharray:none;stroke-opacity:1;paint-order:markers stroke fill" />
    <path
       id="path2370"
       d="m 180,210 c 0.0948,-0.008 -1.32787,-3.46106 -0.75,-3.75 1.4305,-0.71525 8.43366,0.38267 9,-0.75 0.65983,-1.31967 0.25,-6.41161 0.25,-8.25 0,-0.12526 -0.56437,-1.84282 -0.25,-2 0.14907,-0.0745 0.34189,0.0527 0.5,0 0.75119,-0.2504 1.2621,-0.34946 1.75,-1 0.14142,-0.18856 0.41246,-0.28116 0.5,-0.5 0.0928,-0.23212 -0.049,-0.50486 0,-0.75 0.46168,-2.30841 0.25,-4.84218 0.25,-7.25 0,-2.14716 0.41693,-4.7492 -0.25,-6.75 -0.32178,-0.96533 -0.0269,-2.88471 -0.25,-4 -0.12386,-0.6193 0.19867,-1.404 0,-2 -0.095,-0.28504 -0.40499,-0.46496 -0.5,-0.75 -0.40569,-1.21707 0,-5.51622 0,-7.25 0,-5.33333 0,-10.66667 0,-16 0,-1.62612 0.001,-1.49676 -0.5,-3 -0.16821,-0.50464 -0.15047,-6.94907 0,-7.25 0.26526,-0.53053 0.75648,-1.00324 1.25,-1.25 0.0462,-0.0231 4.90967,-0.0452 5,0 0.21082,0.10541 0.42546,0.27639 0.5,0.5 0.125,0.375 -0.125,0.875 0,1.25 0.39547,1.1864 0.5,2.2053 0.5,3.5 0,4 0,8 0,12 0,1.7697 0.24844,3.76089 0,5.5 -0.14668,1.02677 -0.80208,2.0104 -1,3 -0.0981,0.49029 0.0981,1.00971 0,1.5 -0.39135,1.95673 5.4e-4,3.99565 -0.25,6 -0.28007,2.24053 -0.62471,8.00174 -0.25,10.25 0.14814,0.88885 0.62735,1.64145 0.75,2.5 0.13,0.90997 0.0677,1.63543 0.5,2.5 0.19063,0.38126 0.72962,1.22962 1,1.5 0.0589,0.0589 0.21273,-0.0745 0.25,0 0.0745,0.14907 -0.0745,0.35093 0,0.5 0.007,0.0137 5.95558,0.0444 6.25,-0.25 0.21372,-0.21372 -0.0568,-1.21619 0,-1.5 0.35894,-1.79469 -0.20911,-6.84697 1.75,-7.5 0.53997,-0.17999 1.40935,0 2,0 0.33891,0 2.25183,-0.24817 2.5,0 0.17968,0.17968 0,1.19451 0,1.5 0,1.16045 0.11716,2.57841 0,3.75 -0.098,0.9802 -0.45684,1.62053 -0.75,2.5 -0.0857,0.25724 -0.11472,4.52056 0,4.75 0.0145,0.0291 1.1434,0.71447 1.25,0.75 0.68353,0.22784 11.39642,0.0345 11.5,0 0.0791,-0.0264 -0.0589,-0.19108 0,-0.25 0.25,-0.25 1.25,0.25 1.5,0 0.17678,-0.17678 -0.0606,-0.50746 0,-0.75 -0.15068,-0.45249 0.40498,-0.46496 0.5,-0.75 0.0527,-0.15811 -0.0527,-0.34189 0,-0.5 0.19246,-0.57737 1.96502,-0.5 2.5,-0.5 1.09884,0 0.75744,1.75744 1.25,2.25 0.0993,0.0993 1.55698,0 1.75,0 3.10418,0 6.12971,0.25 9.25,0.25 0.047,0 2.22365,0.079 2.25,0 0.66667,-2 -0.22222,-0.11111 0,-1 0.35258,-1.41032 1.08523,-4.47349 2.25,-5.25 0.94912,-0.63275 6.2442,-0.5 7.5,-0.5 1.79124,0 3.43457,-0.25 5.25,-0.25 0.13178,0 1.20978,-0.0804 1.25,0 0.0745,0.14907 -0.0527,0.34189 0,0.5 0.095,0.28504 0.28754,0.53754 0.5,0.75 0.0589,0.0589 0.22365,-0.0791 0.25,0 0.35829,1.07488 0,2.80299 0,4 0,3.16667 0,6.33333 0,9.5 0,0.46167 -0.27757,2.72243 0,3 0.13176,0.13176 0.3882,0.10093 0.5,0.25 0.76226,0.17698 0.0963,0.69268 0.25,1 0.52022,1.04044 -0.0173,-0.26726 0.5,0.25 0.21902,0.21902 0.60712,0.96424 0.75,1.25 0.1118,0.22361 -0.0791,0.51283 0,0.75 0.12237,0.36711 0.60516,1.42758 0.75,1.5 0.64159,0.32079 2.36584,-0.51831 2.75,0.25 0.21676,0.43352 -0.0135,1.64522 -0.25,2 -0.51599,0.77398 -2.44436,0.39929 -3.25,0.5 -4.02795,0.50349 -8.1772,0.25 -12.25,0.25 -15.41667,0 -30.83333,0 -46.25,0 -4.75,0 -9.5,0 -14.25,0 -2.29052,0 -5.65851,0.54574 -7.75,-0.5 z"
       style="opacity:0.372984;fill:#501616;fill-opacity:0.988235;stroke:#ffffd9;stroke-width:0;stroke-linecap:butt;stroke-linejoin:bevel;stroke-miterlimit:4;stroke-dasharray:none;stroke-opacity:1;paint-order:markers stroke fill" />
    <path
       id="path2438"
       d="m 1120,120 -5,10"
       style="opacity:0.109;fill:#ff6600;fill-opacity:0.988235;stroke:#ffffd9;stroke-width:0;stroke-linecap:butt;stroke-linejoin:bevel;stroke-miterlimit:4;stroke-dasharray:none;stroke-opacity:1;paint-order:markers stroke fill" />
    <path
       id="path2456"
       d="m 990,135 110,-15"
       style="opacity:0.109;fill:#ff6600;fill-opacity:0.988235;stroke:#ffffd9;stroke-width:0;stroke-linecap:butt;stroke-linejoin:bevel;stroke-miterlimit:4;stroke-dasharray:none;stroke-opacity:1;paint-order:markers stroke fill" />
  </g>
  <g
     inkscape:label="Mountains B1"
     id="layer6"
     inkscape:groupmode="layer"
     style="display:inline"
     sodipodi:insensitive="true">
    <path
       id="path2526"
       d="m 1120,210 c 185,-30 185,-30 185,-30 z"
       style="opacity:1;fill:#a02c2c;fill-opacity:0.988235;stroke:#ffffd9;stroke-width:0;stroke-linecap:butt;stroke-linejoin:bevel;stroke-miterlimit:4;stroke-dasharray:none;stroke-opacity:1;paint-order:markers stroke fill" />
    <path
       sodipodi:nodetypes="ccccccsc"
       id="path2528"
       d="m 1290,205 -510,1.94737 H 235 0 V 222 l 1366,-2 c 0,0 0.1562,-14.75 -0.013,-15.00098 0,0 -25.9869,9.8e-4 -75.9869,9.8e-4 z"
       style="opacity:1;fill:#731610;fill-opacity:1;stroke:#ffffd9;stroke-width:0;stroke-linecap:butt;stroke-linejoin:bevel;stroke-miterlimit:4;stroke-dasharray:none;stroke-opacity:1;paint-order:markers stroke fill" />
  </g>
  <g
     inkscape:groupmode="layer"
     id="layer11"
     inkscape:label="Plants"
     style="opacity:1;">
    <path
       style="fill:#5e9735;fill-opacity:1;stroke:#000000;stroke-width:0;stroke-linecap:butt;stroke-linejoin:miter;stroke-miterlimit:4;stroke-dasharray:none;stroke-opacity:1"
       d="M 335,315 316.51135,185 315.75568,179 315,170 v -10 c 0,0 1.50973,-19.16234 10.95403,-28.94766 0.29448,-0.30511 0.50836,-0.24789 0.81864,-0.53461 0.92938,-0.85882 1.5709,-1.74742 2.7587,-2.468 3.91905,-2.37748 9.41587,-3.79961 13.81962,-3.68763 4.48945,0.11416 7.438,-0.94734 11.51313,2.47633 0.52306,0.43944 1.6161,0.76985 2.54579,1.71151 0.70201,0.71106 1.27289,2.03657 1.64978,2.51643 0.82366,1.0487 2.13736,1.77469 2.80188,3.1073 0.74524,1.49447 0.83343,3.66078 1.64054,6.10526 0.69048,2.09125 1.40694,5.13638 2.12814,9.72107 2.31598,14.72245 2.20657,24.17293 1.51136,31.5 C 356.56216,293 355,315 355,315 l -10,-5 z"
       id="path1076"
       sodipodi:nodetypes="cccccsssssssssssczc" />
    <path
       style="fill:#5e8b35;fill-opacity:1;stroke:#000000;stroke-width:0;stroke-linecap:butt;stroke-linejoin:miter;stroke-miterlimit:4;stroke-dasharray:none;stroke-opacity:1"
       d="m 345,310 -18,-50 3,20 1,10 z"
       id="path1106"
       sodipodi:nodetypes="ccccc" />
    <path
       style="fill:#5e8b35;fill-opacity:1;stroke:#000000;stroke-width:0;stroke-linecap:butt;stroke-linejoin:miter;stroke-miterlimit:4;stroke-dasharray:none;stroke-opacity:1"
       d="m 345,310 14,-42 v 10 l -2,12 z"
       id="path1108"
       sodipodi:nodetypes="ccccc" />
    <path
       style="fill:#5e9735;fill-opacity:1;stroke:#000000;stroke-width:0;stroke-linecap:butt;stroke-linejoin:miter;stroke-miterlimit:4;stroke-dasharray:none;stroke-opacity:1"
       d="m 325,240 c -1.37247,0 -11.48238,1.06531 -12.829,-1.2099 -0.69883,-1.18072 -2.03946,-2.95518 -2.6137,-4.56856 -3.13152,-8.79834 -0.0444,-18.22381 -0.40923,-31.12414 C 308.76948,189.7088 305,173 305,173 c 0,0 -0.29678,-2.14238 -1.12956,-4.01724 -0.91244,-2.05419 -2.42404,-3.88468 -3.82622,-4.57286 -3.27969,-1.60964 -7.29357,0.0888 -10.04422,5.5901 -2.96369,5.92738 -6.414,19.03995 -5.4747,35.76262 C 285.17069,217.25255 290,235 290,235 l 5,10 5,5 5,1 h 5 l 10,-1 h 5.7955 z"
       id="path1122"
       sodipodi:nodetypes="cssscsssscccccccc" />
    <path
       style="fill:#5e8b35;fill-opacity:1;stroke:#000000;stroke-width:0;stroke-linecap:butt;stroke-linejoin:miter;stroke-miterlimit:4;stroke-dasharray:none;stroke-opacity:1"
       d="m 325,245 h -18 l -3,-2 -2,-2 -2,-3 -1,-3 c -7.9487,-22.88209 -5.12823,-44.99746 -7,-68 v -1 l 1,-1 1,-1 1,-1 c 0,0 1.38157,-0.0807 1.83239,-0.0582 C 298,163 299,163 300.03461,163.62436 c 0.48055,0.29 1.96539,1.37568 1.82145,2.22055 -1.47325,8.64767 -2.01938,42.33203 0.47875,58.19766 C 303.1722,229.36085 304,233 304,233 c 0,0 1.31604,2.67321 1.95845,4.35978 0.51594,1.35453 3.5522,3.73344 4.71356,4.68315 2.30929,1.88846 4.97417,1.51613 8.03238,2.05584 1.43035,0.25243 6.15064,-0.0859 6.15064,-0.0859 C 325.06069,243.5338 325,245 325,245 Z"
       id="path1124"
       sodipodi:nodetypes="cccccccccccsssscssssc" />
    <path
       style="fill:#5e8b35;fill-opacity:1;stroke:#000000;stroke-width:0;stroke-linecap:butt;stroke-linejoin:miter;stroke-miterlimit:4;stroke-dasharray:none;stroke-opacity:1"
       d="m 289,225 c 1.50979,5.01583 4.2573,9.58991 6.68165,13.21302 2.17173,3.2456 3.83723,5.72808 8.17157,7.08139 4.96395,1.5499 13.02641,1.44198 21.14678,-0.29441 v 1 l -15,2 -5,1 -6,-2 -5,-5 -5,-10 z"
       id="path1126"
       sodipodi:nodetypes="csscccccccc" />
    <ellipse
       style="opacity:0.410256;fill:#bf5a27;fill-opacity:1;stroke-width:0;stroke-miterlimit:4;stroke-dasharray:none"
       id="path1187"
       cx="280"
       cy="307.5"
       rx="10"
       ry="2.5" />
    <ellipse
       ry="3"
       rx="10"
       cy="320"
       cx="328"
       id="path1187-1"
       style="opacity:0.410256;fill:#bf5a27;fill-opacity:1;stroke-width:0;stroke-miterlimit:4;stroke-dasharray:none" />
    <ellipse
       ry="1.5"
       rx="10"
       cy="344.5"
       cx="216"
       id="path1187-0"
       style="opacity:0.410256;fill:#bf5a27;fill-opacity:1;stroke-width:0;stroke-miterlimit:4;stroke-dasharray:none" />
    <path
       sodipodi:nodetypes="cssscsssscccccccc"
       id="path1122-4"
       d="m 366.06663,160.14117 c 0.77991,0 6.52493,0.32586 7.29015,-0.37008 0.39712,-0.36116 1.15895,-0.90394 1.48526,-1.39744 2.17123,-3.28369 -0.0166,-5.78595 0.0347,-10.12437 0.0344,-2.90755 2.55501,-8.60222 2.55501,-8.60222 0,0 0.16865,-0.65532 0.64188,-1.22881 0.5185,-0.62834 1.37748,-1.18825 2.17427,-1.39875 1.86371,-0.49236 4.14463,0.0272 5.70769,1.70991 1.27292,1.37038 3.03028,6.69103 2.78855,10.83639 -0.29783,5.10746 -2.78855,9.04596 -2.78855,9.04596 l -2.84128,3.05883 -2.84128,1.52941 -2.84128,0.30588 h -2.84128 L 368.90791,163.2 h -3.29333 z"
       style="opacity:1;fill:#5e9735;fill-opacity:1;stroke:#000000;stroke-width:0;stroke-linecap:butt;stroke-linejoin:miter;stroke-miterlimit:4;stroke-dasharray:none;stroke-opacity:1" />
    <path
       sodipodi:nodetypes="csscccccccc"
       id="path1126-9"
       d="m 388,153 c -0.85795,1.53425 -3.89539,5.48632 -5.27304,6.59457 -1.2341,0.99277 -2.18053,1.75212 -4.64354,2.16607 -2.8208,0.47409 -7.40234,0.44108 -12.01679,-0.09 v 0.30588 l 8.52384,0.61176 2.84128,0.30589 3.40954,-0.61177 2.84128,-1.52941 2.84128,-3.05882 z"
       style="opacity:1;fill:#5e8b35;fill-opacity:1;stroke:#000000;stroke-width:0;stroke-linecap:butt;stroke-linejoin:miter;stroke-miterlimit:4;stroke-dasharray:none;stroke-opacity:1" />
    <path
       id="path1105"
       d="m 355,130 c 0.16598,-0.19982 0.39863,-0.35943 0.49793,-0.59946 0.037,-0.0894 -1.44476,-0.86686 -1.76776,-1.06066 -0.63503,-0.38101 -1.10052,-1.08059 -1.76777,-1.41421 -0.42544,-0.21272 -1.28015,-0.39627 -1.59099,-0.70711 -0.36576,-0.36576 0.55893,0.0143 -0.17678,-0.35355 -0.16666,-0.0833 -0.36366,-0.0935 -0.53033,-0.17678 -0.19878,-0.0994 -0.32093,-0.46053 -0.53033,-0.53033 -0.1118,-0.0373 -0.25549,0.0654 -0.35355,0 -0.10963,-0.0731 -0.0671,-0.28046 -0.17678,-0.35355 -0.19611,-0.13075 -0.47844,0.0572 -0.7071,0 -0.12783,-0.032 -0.23571,-0.11785 -0.35356,-0.17678 -0.17677,-0.0589 -0.34761,-0.14023 -0.53033,-0.17678 -0.86974,-0.17395 -1.94326,0 -2.82842,0 -0.82056,0 -2.85044,-0.27403 -3.53554,0 -0.28043,0.11218 -0.60974,0.43895 -0.88388,0.53033 -0.55248,0.18416 -1.27136,0.37617 -1.76777,0.70711 -0.49022,0.32681 -0.84664,0.77687 -1.41421,1.06066 -1.40112,0.70056 -2.78002,1.33371 -4.06587,2.2981 -0.32252,0.24189 -0.54856,0.66034 -0.88388,0.88388 -0.049,0.0327 -0.11785,0 -0.17678,0 -0.11785,0.0589 -0.25066,0.0945 -0.35355,0.17678 -0.35937,0.2875 -0.73523,0.55845 -1.06066,0.88388 -0.0417,0.0417 0.0417,0.13511 0,0.17678 -0.42425,0.42424 -1.2577,0.75462 -1.76777,1.06066 -0.18427,0.11056 -0.49444,0.65926 -0.53033,0.70711 -0.29712,0.39615 -0.7511,0.67371 -1.06066,1.06066 -0.21464,0.2683 -0.28737,0.64092 -0.53033,0.88388 -0.0417,0.0417 -0.15042,-0.0527 -0.17677,0 -0.13437,0.26874 0.0357,0.67142 -0.17678,0.88388 -0.29938,0.29938 -0.40773,0.23095 -0.70711,0.53033 -0.0932,0.0932 -0.0836,0.26039 -0.17677,0.35356 -0.10612,0.10611 -0.39106,0.14464 -0.53033,0.35355 -0.29754,0.44631 -0.61071,1.00445 -0.88389,1.41421 -0.59395,0.89093 -1.51739,1.56898 -2.12132,2.47488 -0.31409,0.47114 -0.40274,0.90694 -0.7071,1.41421 -0.0303,0.0505 -0.15815,-0.0559 -0.17678,0 -0.15414,0.46242 -0.10989,6.6315 0,7.07107 0.25885,1.03541 0.98565,2.14043 1.59099,3.0052 1.16694,1.66706 -0.0608,0.0551 0.88388,1.94455 0.0745,0.14907 0.25798,0.21701 0.35356,0.35355 0.31879,0.45541 0.55034,0.96949 0.88388,1.41421 0.0354,0.0471 0.14142,-0.0471 0.17678,0 0.31622,0.42164 0.4071,0.98088 0.7071,1.41422 0.27286,1.08938 1.34247,1.49532 1.94455,2.29809 1.11003,0.008 0.19029,0.61178 0.35355,0.88389 0.99329,1.65547 0.11668,0.0377 0.88388,1.06066 0.35774,0.47698 -0.003,0.28969 0.35356,0.88388 0.0858,0.14292 0.2611,0.21488 0.35355,0.35355 0.0597,0.0895 0.11857,1.17978 0.35355,1.59099 0.36128,0.63223 1.06445,1.60613 1.23744,2.2981 0.40928,1.63711 -0.1146,0.86254 0.53033,2.47487 0.0789,0.19727 0.25854,0.34031 0.35355,0.53033 1.36197,2.72393 -0.005,-0.0762 0.35356,1.23744 0.33197,1.21724 0.88529,2.30795 1.06066,3.53554 0.32682,2.28774 0.88388,4.56886 0.88388,6.89429 0,3.26583 -0.59572,8.00095 0.88388,10.96015 0.43261,0.86521 0.21384,0.22619 0.70711,0.88389 0.0791,0.1054 0.0739,0.27124 0.17678,0.35355 1.03452,0.82761 0.34344,-0.006 1.23744,0.53033 0.71909,0.43145 -0.0596,0.3533 0.88388,0.70711 0.90444,0.33916 3.51877,1.12485 4.41942,1.23743 2.85237,0.35655 4.91885,-0.1042 7.24784,-1.76776 0.60611,-0.43294 0.86209,-1.10788 1.41421,-1.591 0.93586,-0.81887 0.47038,0.0799 1.06066,-0.7071 1.0674,-1.4232 1.97459,-2.97655 3.00521,-4.41942 0.90468,-1.26655 1.90217,-2.50555 3.18198,-3.35876 0.40612,-0.27074 -0.0758,-0.10097 0.35355,-0.53033 0.2521,-0.25209 0.60774,-0.14644 0.88389,-0.35355 0.53067,-0.39801 0.68371,-1.5559 1.06066,-2.12132 0.16343,-0.24515 0.41067,-0.43787 0.53033,-0.70711 0.12203,-0.27456 0.0584,-0.60771 0.17677,-0.88388 0.11205,-0.26145 0.59506,-0.79921 0.70711,-1.06066 0.62081,-1.44855 0.94214,-3.0032 1.41421,-4.41942 0.24849,-0.74547 -0.19122,-1.71 0,-2.47487 0.12299,-0.49195 0.40813,-0.92539 0.53033,-1.41422 0.15018,-0.6007 -0.0873,-1.33359 0,-1.94454 0.0569,-0.39818 0.24688,-0.74064 0.35356,-1.06066 0.12301,-0.36903 -0.0944,-0.85984 0,-1.23744 0.44512,-1.78051 1.14263,-3.33308 1.59099,-5.12652 0.11367,-0.45471 0.10656,-3.99316 0,-4.41942 -0.0904,-0.36155 -0.29229,-0.69305 -0.35356,-1.06066 -0.15702,-0.94215 0,-2.04782 0,-3.0052 0,-1.89783 0.0576,-3.78199 -0.17677,-5.65686 -0.0365,-0.29235 0.13176,-0.62036 0,-0.88388 -0.0745,-0.14907 -0.26111,-0.21488 -0.35356,-0.35355 -0.1688,-0.2532 -0.1012,-1.11191 -0.17677,-1.41422 -0.10372,-0.41486 -0.47428,-1.81087 -0.70711,-2.12132 -0.1,-0.13333 -0.2678,-0.21063 -0.35355,-0.35355 -0.15459,-0.25764 -0.0101,-0.63388 -0.17678,-0.88388 -0.0731,-0.10964 -0.29463,-0.0589 -0.35355,-0.17678 -0.0791,-0.15811 0.0429,-0.35883 0,-0.53033 -0.0346,-0.13831 -0.45855,-0.56354 -0.53033,-0.70711 -0.14343,-0.28684 -0.30519,-0.83552 -0.53033,-1.06066 -0.0932,-0.0932 -0.28047,-0.0671 -0.35356,-0.17677 -0.0654,-0.0981 0.0373,-0.24175 0,-0.35356 -0.18392,-0.55177 -0.11785,0.0589 -0.35355,-0.17677 -0.0932,-0.0932 -0.0836,-0.26039 -0.17678,-0.35356 -0.15055,-0.15055 -0.563,-0.24211 -0.7071,-0.53033 -0.11074,-0.22147 -0.0534,-1.08327 -0.17678,-1.23743 -0.18405,-0.23007 -0.49877,-0.322 -0.70711,-0.53033 -0.10824,-0.10825 -0.23466,-0.70555 -0.35355,-0.88389 -0.4804,-0.72059 -0.51988,-0.69665 -1.06066,-1.23743 -0.15538,-0.15538 -0.9152,-1.8304 -1.06066,-2.12133 -0.20856,-0.4171 -0.76765,-0.59087 -1.06066,-0.88388 -0.0474,-0.0474 0.10864,-0.43598 -0.17678,-0.35355 C 355.41974,129.65095 355.2249,129.85911 355,130 Z"
       style="fill:url(#linearGradient1353);stroke:#000000;stroke-width:0;stroke-linecap:butt;stroke-linejoin:miter;stroke-opacity:1;stroke-miterlimit:4;stroke-dasharray:none;fill-opacity:1;opacity:0.38888889;filter:url(#filter1399)" />
    <path
       id="path1403"
       d="m 367.25422,136.65833 c 2.55475,-6.31146 -2.41565,2.37084 -3.26463,1.52186 -0.43062,-0.43062 -0.16561,-0.78991 -0.70711,-1.06066 -0.90457,-0.45229 -1.9464,-0.4131 -2.82842,-0.70711 -0.65192,-0.2173 -1.12434,-0.81937 -1.76777,-1.06066 -1.2147,-0.45551 -2.62993,-0.74587 -3.88909,-1.06066 -0.55459,-0.13864 -1.21317,0.13865 -1.76776,0 -0.93187,-0.23296 -2.91607,-0.84006 -3.88909,-0.35355 -0.10541,0.0527 0.0527,0.24814 0,0.35355 -0.97932,1.95864 -0.70711,2.62033 -0.70711,4.94975 0,1.5434 0.52571,2.19816 1.06066,3.53554 0.0875,0.21884 -0.15089,0.52603 0,0.7071 0.4831,0.57971 1.29636,0.82496 1.76777,1.41422 0.49386,0.61733 0.70711,1.41421 1.06066,2.12132 0.4714,0.7071 0.87606,1.46358 1.41421,2.12132 0.94986,1.16093 2.43778,1.87961 3.18198,3.18198 0.17542,0.30697 -0.0858,0.71766 0,1.06066 0.14292,0.57166 0.84182,0.8671 1.06066,1.41421 0.26764,0.6691 0.61927,2.03785 0.70711,2.82843 0.13015,1.1713 -0.37268,2.4175 0,3.53553 0.21731,0.65192 0.78997,1.13615 1.06066,1.76777 0.0928,0.21664 -0.0422,0.47521 0,0.70711 0.19437,1.069 0.56351,2.10497 0.70711,3.18198 0.43773,3.28299 -0.51069,1.02137 0,4.59619 0.12133,0.84935 0.49902,1.64252 0.7071,2.47487 0.87057,3.48226 0.0205,0.18451 0.35356,3.18198 0.21057,1.89511 0.85009,3.76175 1.06066,5.65686 0.33048,2.97429 0,6.20172 0,9.19239 0,6.12826 0,12.25651 0,18.38477 0,0.48849 -0.25008,1.39265 0,1.76777 0.47044,0.70567 3.06872,4.70945 4.59619,3.18198 1.51672,-1.51671 1.83827,-1.97822 2.12132,-4.24264 0.11785,-0.4714 0.2357,-0.94281 0.35356,-1.41421 0.11785,-0.11785 0.31313,-0.19187 0.35355,-0.35356 0.17017,-0.68069 -0.31223,-1.85041 0,-2.47487 0.19003,-0.38006 0.5493,-0.66613 0.70711,-1.06066 0.4075,-1.01875 0,-9.64792 0,-11.31371 0,-4.68525 0.76844,-10.06905 -0.70711,-14.49569 -0.54962,-1.64885 0.15796,-7.84604 0,-9.89949 1.47955,-1.55205 -0.57234,-2.10384 -0.70711,-3.18198 -0.25398,-2.03185 0,-4.3257 0,-6.36396 0,-2.1495 -0.30584,-4.5766 0,-6.71752 0.10541,-0.73786 0.52633,-1.39822 0.70711,-2.12132 0.25837,-1.03348 0.35355,-3.41044 0.35355,-4.59619 0,-0.22716 0.1884,-2.64003 0,-2.82843 -0.18634,-0.18634 -0.56093,-0.13429 -0.7071,-0.35355 -0.13075,-0.19612 0.0572,-0.47845 0,-0.70711 -0.20325,-0.81299 -1.05879,-1.41047 -1.41422,-2.12132 -0.10541,-0.21082 0.13075,-0.51099 0,-0.70711 -0.44287,-0.6643 -1.04789,-0.69434 -1.41421,-1.06066 -0.21721,-0.21721 -0.23357,-0.82389 -0.70711,-1.06066 -0.2357,-0.11785 -0.89189,-0.16568 -0.7071,-0.35355 0.51151,-0.52006 1.23361,-0.77887 1.85041,-1.16831"
       style="fill:url(#linearGradient1411);fill-opacity:1;stroke:#000000;stroke-width:0;stroke-linecap:butt;stroke-linejoin:miter;stroke-miterlimit:4;stroke-dasharray:none;stroke-opacity:1;filter:url(#filter1425);opacity:0.59150327" />
    <path
       id="path1429"
       d="m 385,140 c 0.30326,0.001 2.10429,0.60422 1.78741,-0.34641 -0.69229,-2.07687 0.0242,1.02577 -1.78741,0.34641 -0.79048,-0.29643 -0.8566,-1.46355 -1.39457,-2.11418 -0.1502,-0.18165 -0.49629,0.10541 -0.70711,0 -0.71747,-0.35873 -1.43373,-1.58123 -2.47487,-1.06066 -0.49584,0.24792 -0.93807,0.82259 -1.41421,1.06066 -2.01274,1.00637 2.04683,5.50788 2.47487,6.36396 0.50248,1.00496 -0.53475,6.53633 0,7.07107 0.36038,0.36038 2.68434,1.3355 2.82843,1.76777 0.25816,0.77448 -0.531,3.00454 0,3.53553 0.16666,0.16667 0.4714,0 0.7071,0 2.33567,0 1.73941,-3.83237 2.47488,-5.3033 0.36905,-0.73811 2.2713,-5.50687 1.41421,-6.36396 -0.0833,-0.0833 -0.27022,0.0833 -0.35355,0 -0.16667,-0.16667 0.10541,-0.49629 0,-0.70711 -0.20884,-0.41767 -0.80065,-0.67063 -1.06066,-1.06066 -0.20673,-0.31008 -0.09,-0.79713 -0.35356,-1.06066 -0.0833,-0.0833 -0.30085,0.10541 -0.35355,0 C 386.09193,140.73751 387.29596,141.14369 385,140 Z"
       style="fill:url(#linearGradient1437);fill-opacity:1;stroke:#000000;stroke-width:0;stroke-linecap:butt;stroke-linejoin:miter;stroke-miterlimit:4;stroke-dasharray:none;stroke-opacity:1;filter:url(#filter1451)" />
    <path
       sodipodi:nodetypes="cccccccccccsssscssssc"
       id="path1124-5"
       d="m 366.06663,161.67059 h 10.22861 L 378,161.05882 l 1.13652,-0.61176 1.13651,-0.91765 0.56826,-0.91765 c 4.51689,-6.99923 2.91414,-13.76393 3.97779,-20.8 v -0.30588 l -0.56826,-0.30588 -0.56825,-0.30588 -0.56826,-0.30589 c 0,0 -0.78509,-0.0247 -1.04126,-0.0178 -0.6635,0.0178 -1.23176,0.0178 -1.81968,0.20878 -0.27308,0.0887 -1.11685,0.4208 -1.03505,0.67923 0.83717,2.64517 1.14752,12.94862 -0.27206,17.80164 C 378.47041,156.88685 378,158 378,158 c 0,0 -0.74784,0.81769 -1.1129,1.33358 -0.29318,0.41432 -2.01856,1.14199 -2.67851,1.43249 -1.31226,0.57765 -2.8266,0.46376 -4.56444,0.62885 -0.81281,0.0772 -3.49514,-0.0263 -3.49514,-0.0263 -0.11687,-0.14654 -0.0824,0.30195 -0.0824,0.30195 z"
       style="opacity:1;fill:#5e8b35;fill-opacity:1;stroke:#000000;stroke-width:0;stroke-linecap:butt;stroke-linejoin:miter;stroke-miterlimit:4;stroke-dasharray:none;stroke-opacity:1" />
    <path
       id="path1455"
       d="m 365,140 c -0.16667,-0.5 -0.2643,-1.0286 -0.5,-1.5 -0.32554,-0.65107 -0.67978,-0.46489 -1.25,-0.75 -0.79232,-0.39616 -1.12361,-1.37361 -1.75,-2 -0.39528,-0.39528 -0.98398,-0.53499 -1.5,-0.75 -1.56584,-0.65243 -9.2031,-1.56876 -11.25,-0.75 -0.30211,0.12084 -3.55893,2.7134 -3.75,3 -0.16402,0.24603 -0.41554,1.08277 -0.75,1.25 -0.3877,0.19385 -0.50584,-0.0794 -1,0.25 -1.3913,0.92753 -2.90168,1.70084 -4.5,2.5 -1.02803,0.51402 -1.35565,1.07924 -2.25,1.75 -1.5,1.125 1,-1.25 -1.5,0.75 -0.32101,0.25681 -0.42515,1.64969 -0.25,2 0.0178,0.0356 2.38134,0 3.25,0 0.0786,0 1.78385,0.17904 2.5,0 1.20149,-0.30037 2.33371,-1.06264 3.5,-1.5 0.99417,-0.37281 2.24498,-0.41499 3.25,-0.75 0.1118,-0.0373 0.16667,-0.16667 0.25,-0.25 0.25,-0.0833 0.49435,-0.18609 0.75,-0.25 1.42997,-0.35749 3.76296,-0.54741 5.25,-0.25 1.47848,0.2957 0.0251,0.16006 1.5,0.75 0.23212,0.0928 0.54199,-0.13867 0.75,0 0.44398,0.29598 0.8158,0.68986 1.25,1 1.15438,0.82455 2.72322,0.72322 3.75,1.75 0.2865,0.2865 0.4635,0.9635 0.75,1.25 0.42492,0.42492 1.07508,0.57508 1.5,1 0.0589,0.0589 -0.0589,0.19107 0,0.25 0.95975,0.95975 2.35582,1.63228 3.25,2.75 0.26749,0.33436 0.90949,1.49462 1.25,1.75 0.57239,0.42929 0.4143,-0.4214 0.75,0.25 0.57038,1.14077 1.55493,1.63789 2.25,2.75 0.27163,0.43461 0.38303,1.44152 1,1.75 0.0745,0.0373 0.19108,-0.0589 0.25,0 0.0461,0.0461 0.20394,0.70393 0.25,0.75 0.0974,0.0974 0.84744,0 1,0 0.74941,0 0.13739,0.0439 0.5,-0.5 0.10336,-0.15504 0.3882,-0.10093 0.5,-0.25 0.56889,-0.75852 0.25,-4.24821 0.25,-5.25 0,-0.82068 -0.98944,-4.72888 -1.25,-5.25 -0.15811,-0.31623 -0.61869,-0.42173 -0.75,-0.75 -0.12761,-0.31902 -0.0963,-0.69268 -0.25,-1 -0.0833,-0.16667 -0.39664,-0.095 -0.5,-0.25 -0.1839,-0.27585 -0.38208,-0.85283 -0.75,-1 -0.65546,-0.26219 -1.22713,-0.40142 -1.75,-0.75 -0.25,-0.16667 -0.25,-0.58333 -0.5,-0.75 -0.0896,-0.0597 -1.10626,-0.30835 -1.25,-0.5 -0.15811,-0.21082 -0.0919,-0.53918 -0.25,-0.75 -0.1118,-0.14907 -0.36824,-0.11824 -0.5,-0.25 -0.10178,-0.10178 -0.41998,-0.83997 -0.5,-1 -0.0373,-0.0745 0.0745,-0.21273 0,-0.25 -0.30732,-0.15366 -0.8179,0.0414 -1,-0.25 -0.3123,-0.49969 -0.10708,-1.17834 -0.25,-1.75 -0.0729,-0.29149 -0.57287,-1.04149 -0.5,-0.75 0.21101,0.84405 0.5,1.66667 0.75,2.5"
       style="fill:url(#linearGradient1463);fill-opacity:1;stroke:#000000;stroke-width:0;stroke-linecap:butt;stroke-linejoin:miter;stroke-miterlimit:4;stroke-dasharray:none;stroke-opacity:1;filter:url(#filter1481)" />
    <path
       style="opacity:0.99;fill:#5e8b35;fill-opacity:1;stroke:#000000;stroke-width:0;stroke-linecap:butt;stroke-linejoin:miter;stroke-miterlimit:4;stroke-dasharray:none;stroke-opacity:1"
       d="m 345,310 -11,-184 3,-2 7,-1 6,1 2,1 -0.33096,8.74694 -0.14641,3.86946 -0.31297,8.27126 -0.293,7.74365 -0.12699,3.356 -0.17618,4.65617 -0.2979,7.87319 z"
       id="path1100"
       sodipodi:nodetypes="cccccccccccccc" />
    <path
       style="fill:#5e8b35;fill-opacity:1;stroke:#000000;stroke-width:0;stroke-linecap:butt;stroke-linejoin:miter;stroke-miterlimit:4;stroke-dasharray:none;stroke-opacity:1;filter:url(#filter1118)"
       d="m 345,310 -20,-178 -4,4 -3,6 -3,13 z"
       id="path1102"
       sodipodi:nodetypes="cccccc" />
    <path
       style="fill:#5e8b35;fill-opacity:1;stroke:#000000;stroke-width:0;stroke-linecap:butt;stroke-linejoin:miter;stroke-miterlimit:4;stroke-dasharray:none;stroke-opacity:1"
       d="m 345,310 18,-171 3,6 2,6 v 8 l -1,3 z"
       id="path1104"
       sodipodi:nodetypes="ccccccc" />
    <path
       id="path1487"
       d="m 360,180 c -3.72639,-2.62117 -2.79551,-7.64614 -5.0324,-11.00148 -0.59881,-0.89822 -3.19701,-1.44429 -3.53553,-2.12132 -0.21082,-0.42164 0.14907,-0.967 0,-1.41421 -0.22629,-0.67887 -1.34946,-1.28471 -1.41421,-1.41422 -0.77546,-1.55091 -0.83426,-4.36979 -2.12132,-5.65685 -1.3094,-1.3094 -4.35396,-0.54425 -5.65686,-0.70711 -1.59636,-0.19954 -6.11933,-1.813 -7.77817,-0.7071 -4.15135,2.76756 -4.32851,12.91984 -3.53554,17.67767 0.40214,2.41283 1.49903,3.08287 2.12132,4.94974 0.68287,2.04859 -0.30567,4.93138 0,7.07107 0.29571,2.06993 0.41141,4.29403 0.70711,6.36396 0.0471,0.32998 0.65997,0.37713 0.70711,0.70711 0.81995,5.73967 -0.23512,4.55904 1.41421,10.6066 0.46361,1.6999 -0.007,7.05609 0.70711,8.48528 1.82519,3.65038 2.56252,7.42165 3.53553,11.31371 -0.42619,1.27982 1.14547,1.31509 1.41422,2.12132 0.68532,2.05599 0.17633,4.94798 0.7071,7.07107 0.0808,0.32338 0.47141,0.4714 0.70711,0.7071 0.2357,0.94281 0.56967,1.86637 0.70711,2.82843 0.52722,3.6906 -0.61256,7.63835 0,11.31371 0.24507,1.47043 1.05266,2.79644 1.41421,4.24264 0.56609,2.26437 0,5.46015 0,7.77818 0,4.63022 -1.09587,15.41552 0,19.79899 0.16169,0.64676 1.11607,0.81792 1.41421,1.41421 0.51238,1.02474 -0.74117,2.10429 0.70711,2.82843 3.88623,1.94311 5.03788,-3.66773 6.36396,-5.65686 0.3698,-0.5547 1.2034,-0.78176 1.41421,-1.41421 0.38006,-1.14018 0.32705,-2.39536 0.70711,-3.53554 -0.36193,-1.58088 1.24755,-0.2071 1.41421,-0.7071 0.47964,-1.43892 0,-4.08223 0,-5.65686 0,-6.65932 -0.82479,-13.90772 0,-20.50609 0.23571,-1.17851 0.47141,-2.35703 0.70711,-3.53554 0.2357,0 0.6017,0.21082 0.70711,0 0.14971,-0.29943 0.70711,-6.71219 0.70711,-7.07106 0,-6.16177 -0.33334,2.04044 0.7071,-2.12133 1.10529,-4.42114 0,-12.79897 0,-17.67766 0,-8.72099 0,-17.44197 0,-26.16296 0,-3.81385 0.80547,-6.57638 0.0827,-10.21172 z"
       style="fill:none;stroke:#000000;stroke-width:0;stroke-linecap:butt;stroke-linejoin:miter;stroke-opacity:1;stroke-miterlimit:4;stroke-dasharray:none" />
    <path
       sodipodi:nodetypes="cccccsssssssssssczc"
       id="path1076-4"
       d="m 1034.3157,307.32443 10.5095,-47.36235 0.4296,-2.18595 0.4295,-3.27893 v -3.64326 c 0,0 -0.8582,-6.98133 -6.2266,-10.54638 -0.1674,-0.11116 -0.289,-0.0903 -0.4653,-0.19477 -0.5283,-0.31289 -0.893,-0.63663 -1.5682,-0.89916 -2.2277,-0.86617 -5.3523,-1.38429 -7.8555,-1.34349 -2.552,0.0416 -4.228,-0.34514 -6.5445,0.90219 -0.2973,0.1601 -0.9186,0.28047 -1.4471,0.62354 -0.399,0.25906 -0.7235,0.74198 -0.9378,0.9168 -0.4681,0.38207 -1.2149,0.64657 -1.5926,1.13207 -0.4237,0.54448 -0.4738,1.33372 -0.9326,2.22431 -0.3925,0.76189 -0.7997,1.87131 -1.2097,3.54163 -1.3165,5.36377 -1.2543,8.80682 -0.8591,11.47626 6.0137,40.62232 6.9017,48.63749 6.9017,48.63749 l 5.6843,-1.82163 z"
       style="opacity:1;fill:#5e9735;fill-opacity:1;stroke:#000000;stroke-width:0;stroke-linecap:butt;stroke-linejoin:miter;stroke-miterlimit:4;stroke-dasharray:none;stroke-opacity:1" />
    <path
       sodipodi:nodetypes="ccccc"
       id="path1106-5"
       d="m 1028.6313,305.5028 10.2318,-18.21629 -1.7053,7.28652 -0.5684,3.64326 z"
       style="opacity:1;fill:#5e8b35;fill-opacity:1;stroke:#000000;stroke-width:0;stroke-linecap:butt;stroke-linejoin:miter;stroke-miterlimit:4;stroke-dasharray:none;stroke-opacity:1" />
    <path
       sodipodi:nodetypes="ccccc"
       id="path1108-3"
       d="m 1028.6313,305.5028 -7.958,-15.30168 v 3.64326 l 1.1368,4.37191 z"
       style="opacity:1;fill:#5e8b35;fill-opacity:1;stroke:#000000;stroke-width:0;stroke-linecap:butt;stroke-linejoin:miter;stroke-miterlimit:4;stroke-dasharray:none;stroke-opacity:1" />
    <path
       sodipodi:nodetypes="cssscsssscccccccc"
       id="path1122-8"
       d="m 1040,280 c 0.7802,0 6.527,0.38812 7.2924,-0.4408 0.3973,-0.43016 1.1593,-1.07665 1.4857,-1.66444 1.7801,-3.20546 0.025,-6.63941 0.2327,-11.33933 0.2152,-4.87781 2.3579,-10.96525 2.3579,-10.96525 0,0 0.1687,-0.78053 0.6421,-1.46359 0.5186,-0.74839 1.3778,-1.41529 2.1749,-1.66601 1.8643,-0.58643 4.1459,0.0324 5.7095,2.03662 1.6846,2.15949 3.6459,6.93674 3.112,13.02924 -0.3669,4.18608 -3.112,10.65193 -3.112,10.65193 l -2.8422,3.64326 -2.8422,1.82163 -2.8421,0.36432 h -2.8422 l -5.6843,-0.36432 h -3.2944 z"
       style="opacity:1;fill:#5e9735;fill-opacity:1;stroke:#000000;stroke-width:0;stroke-linecap:butt;stroke-linejoin:miter;stroke-miterlimit:4;stroke-dasharray:none;stroke-opacity:1" />
    <path
       sodipodi:nodetypes="cccccccccccsssscssssc"
       id="path1124-2"
       d="m 1040,281.82163 h 10.2318 l 1.7053,-0.72865 1.1369,-0.72865 1.1368,-1.09298 0.5685,-1.09298 c 4.5183,-8.33653 2.915,-16.39373 3.979,-24.77415 v -0.36433 l -0.5684,-0.36432 -0.5685,-0.36433 -0.5684,-0.36432 c 0,0 -0.7853,-0.0294 -1.0416,-0.0212 -0.6637,0.0212 -1.2321,0.0212 -1.8202,0.24868 -0.2732,0.10565 -1.1172,0.50119 -1.0354,0.809 0.8374,3.15057 1.1479,15.42265 -0.2721,21.20291 -0.476,1.93758 -0.9466,3.26342 -0.9466,3.26342 0,0 -0.7481,0.97392 -1.1133,1.58838 -0.2932,0.49349 -2.0191,1.36019 -2.6793,1.70619 -1.3127,0.68802 -2.8275,0.55237 -4.5659,0.749 -0.813,0.092 -3.4962,-0.0313 -3.4962,-0.0313 -0.1169,-0.17454 -0.082,0.35964 -0.082,0.35964 z"
       style="opacity:1;fill:#5e8b35;fill-opacity:1;stroke:#000000;stroke-width:0;stroke-linecap:butt;stroke-linejoin:miter;stroke-miterlimit:4;stroke-dasharray:none;stroke-opacity:1" />
    <path
       sodipodi:nodetypes="csscccccccc"
       id="path1126-8"
       d="m 1060.4636,274.53511 c -0.8582,1.8274 -2.42,3.49385 -3.7981,4.81385 -1.2345,1.18245 -2.1812,2.08688 -4.645,2.57993 -2.8216,0.56467 -7.4046,0.52535 -12.0205,-0.10726 v 0.36432 l 8.5265,0.72866 2.8422,0.36432 3.4106,-0.72865 2.8421,-1.82163 2.8422,-3.64326 z"
       style="opacity:1;fill:#5e8b35;fill-opacity:1;stroke:#000000;stroke-width:0;stroke-linecap:butt;stroke-linejoin:miter;stroke-miterlimit:4;stroke-dasharray:none;stroke-opacity:1" />
    <path
       transform="matrix(-0.56843304,0,0,0.36432574,1310.0057,177.98879)"
       style="opacity:0.591503;fill:url(#linearGradient1411-2);fill-opacity:1;stroke:#000000;stroke-width:0;stroke-linecap:butt;stroke-linejoin:miter;stroke-miterlimit:4;stroke-dasharray:none;stroke-opacity:1;filter:url(#filter1425-6)"
       d="m 517.25422,176.65833 c 2.55475,-6.31146 -2.41565,2.37084 -3.26463,1.52186 -0.43062,-0.43062 -0.16561,-0.78991 -0.70711,-1.06066 -0.90457,-0.45229 -1.9464,-0.4131 -2.82842,-0.70711 -0.65192,-0.2173 -1.12434,-0.81937 -1.76777,-1.06066 -1.2147,-0.45551 -2.62993,-0.74587 -3.88909,-1.06066 -0.55459,-0.13864 -1.21317,0.13865 -1.76776,0 -0.93187,-0.23296 -2.91607,-0.84006 -3.88909,-0.35355 -0.10541,0.0527 0.0527,0.24814 0,0.35355 -0.97932,1.95864 -0.70711,2.62033 -0.70711,4.94975 0,1.5434 0.52571,2.19816 1.06066,3.53554 0.0875,0.21884 -0.15089,0.52603 0,0.7071 0.4831,0.57971 1.29636,0.82496 1.76777,1.41422 0.49386,0.61733 0.70711,1.41421 1.06066,2.12132 0.4714,0.7071 0.87606,1.46358 1.41421,2.12132 0.94986,1.16093 2.43778,1.87961 3.18198,3.18198 0.17542,0.30697 -0.0858,0.71766 0,1.06066 0.14292,0.57166 0.84182,0.8671 1.06066,1.41421 0.26764,0.6691 0.61927,2.03785 0.70711,2.82843 0.13015,1.1713 -0.37268,2.4175 0,3.53553 0.21731,0.65192 0.78997,1.13615 1.06066,1.76777 0.0928,0.21664 -0.0422,0.47521 0,0.70711 0.19437,1.069 0.56351,2.10497 0.70711,3.18198 0.43773,3.28299 -0.51069,1.02137 0,4.59619 0.12133,0.84935 0.49902,1.64252 0.7071,2.47487 0.87057,3.48226 0.0205,0.18451 0.35356,3.18198 0.21057,1.89511 0.85009,3.76175 1.06066,5.65686 0.33048,2.97429 0,6.20172 0,9.19239 0,6.12826 0,12.25651 0,18.38477 0,0.48849 -0.25008,1.39265 0,1.76777 0.47044,0.70567 3.06872,4.70945 4.59619,3.18198 1.51672,-1.51671 1.83827,-1.97822 2.12132,-4.24264 0.11785,-0.4714 0.2357,-0.94281 0.35356,-1.41421 0.11785,-0.11785 0.31313,-0.19187 0.35355,-0.35356 0.17017,-0.68069 -0.31223,-1.85041 0,-2.47487 0.19003,-0.38006 0.5493,-0.66613 0.70711,-1.06066 0.4075,-1.01875 0,-9.64792 0,-11.31371 0,-4.68525 0.76844,-10.06905 -0.70711,-14.49569 -0.54962,-1.64885 0.15796,-7.84604 0,-9.89949 1.47955,-1.55205 -0.57234,-2.10384 -0.70711,-3.18198 -0.25398,-2.03185 0,-4.3257 0,-6.36396 0,-2.1495 -0.30584,-4.5766 0,-6.71752 0.10541,-0.73786 0.52633,-1.39822 0.70711,-2.12132 0.25837,-1.03348 0.35355,-3.41044 0.35355,-4.59619 0,-0.22716 0.1884,-2.64003 0,-2.82843 -0.18634,-0.18634 -0.56093,-0.13429 -0.7071,-0.35355 -0.13075,-0.19612 0.0572,-0.47845 0,-0.70711 -0.20325,-0.81299 -1.05879,-1.41047 -1.41422,-2.12132 -0.10541,-0.21082 0.13075,-0.51099 0,-0.70711 -0.44287,-0.6643 -1.04789,-0.69434 -1.41421,-1.06066 -0.21721,-0.21721 -0.23357,-0.82389 -0.70711,-1.06066 -0.2357,-0.11785 -0.89189,-0.16568 -0.7071,-0.35355 0.51151,-0.52006 1.23361,-0.77887 1.85041,-1.16831"
       id="path1403-3" />
    <path
       sodipodi:nodetypes="cccccccccccccc"
       id="path1100-4"
       d="m 1028.6313,305.5028 6.2528,-67.03593 -1.7053,-0.72866 -3.979,-0.36432 -3.4106,0.36432 -1.1369,0.36433 0.1881,3.18673 0.083,1.40975 0.1779,3.01343 0.1666,2.82121 0.072,1.22268 0.1001,1.69636 0.1693,2.86841 z"
       style="opacity:0.99;fill:#5e8b35;fill-opacity:1;stroke:#000000;stroke-width:0;stroke-linecap:butt;stroke-linejoin:miter;stroke-miterlimit:4;stroke-dasharray:none;stroke-opacity:1" />
    <path
       transform="matrix(-0.56843304,0,0,0.36432574,1310.0057,177.98879)"
       sodipodi:nodetypes="cccccc"
       id="path1102-8"
       d="m 495,350 -20,-178 -4,4 -3,6 -3,13 z"
       style="opacity:1;fill:#5e8b35;fill-opacity:1;stroke:#000000;stroke-width:0;stroke-linecap:butt;stroke-linejoin:miter;stroke-miterlimit:4;stroke-dasharray:none;stroke-opacity:1;filter:url(#filter1118-8)" />
    <path
       sodipodi:nodetypes="ccccccc"
       id="path1104-6"
       d="m 1028.6313,305.5028 -10.2318,-62.2997 -1.7053,2.18595 -1.1368,2.18596 v 2.9146 l 0.5684,1.09298 z"
       style="opacity:1;fill:#5e8b35;fill-opacity:1;stroke:#000000;stroke-width:0;stroke-linecap:butt;stroke-linejoin:miter;stroke-miterlimit:4;stroke-dasharray:none;stroke-opacity:1" />
    <path
       style="opacity:1;fill:none;stroke:#000000;stroke-width:0;stroke-linecap:butt;stroke-linejoin:miter;stroke-miterlimit:4;stroke-dasharray:none;stroke-opacity:1"
       d="m 1020.1048,258.14046 c 2.1182,-0.95496 1.5891,-2.78569 2.8606,-4.00813 0.3404,-0.32724 1.8173,-0.52619 2.0097,-0.77285 0.1199,-0.15361 -0.085,-0.3523 0,-0.51523 0.1287,-0.24733 0.7671,-0.46805 0.8039,-0.51524 0.4408,-0.56503 0.4743,-1.59203 1.2058,-2.06093 0.7444,-0.47705 2.475,-0.19829 3.2156,-0.25762 0.9074,-0.0727 3.4784,-0.66053 4.4214,-0.25762 2.3597,1.0083 2.4604,4.70703 2.0097,6.44043 -0.2286,0.87906 -0.8521,1.12317 -1.2058,1.80332 -0.3882,0.74635 0.1737,1.79663 0,2.57617 -0.1681,0.75413 -0.2339,1.56443 -0.402,2.31856 -0.027,0.12022 -0.3751,0.1374 -0.4019,0.25762 -0.4661,2.09111 0.1336,1.66097 -0.8039,3.86425 -0.2635,0.61932 0,2.57072 -0.402,3.09141 -1.0375,1.32993 -1.4566,2.7039 -2.0097,4.12187 0.2423,0.46628 -0.6511,0.47913 -0.8039,0.77286 -0.3895,0.74905 -0.1002,1.80267 -0.4019,2.57617 -0.046,0.11781 -0.268,0.17174 -0.402,0.25761 -0.1339,0.34349 -0.3238,0.67997 -0.4019,1.03047 -0.2997,1.34458 0.3482,2.78285 0,4.12188 -0.1393,0.53572 -0.5984,1.01881 -0.8039,1.5457 -0.3218,0.82497 0,1.98928 0,2.83379 0,1.68691 0.6229,5.61627 0,7.21329 -0.092,0.23563 -0.6344,0.29798 -0.8039,0.51523 -0.2912,0.37334 0.4213,0.76665 -0.4019,1.03047 -2.2091,0.70792 -2.8637,-1.33625 -3.6175,-2.06094 -0.2102,-0.20209 -0.684,-0.28482 -0.8039,-0.51523 -0.216,-0.4154 -0.1859,-0.8727 -0.4019,-1.28809 0.2057,-0.57596 -0.7092,-0.0754 -0.8039,-0.25762 -0.2727,-0.52423 0,-1.48726 0,-2.06094 0,-2.42616 0.4688,-5.06694 0,-7.47089 -0.134,-0.42937 -0.268,-0.85873 -0.4019,-1.28809 -0.134,0 -0.3421,0.0768 -0.402,0 -0.085,-0.10909 -0.4019,-2.44543 -0.4019,-2.57617 0,-2.24489 0.1894,0.74338 -0.402,-0.77286 -0.6283,-1.61073 0,-4.66299 0,-6.44042 0,-3.17728 0,-6.35456 0,-9.53184 0,-1.38949 -0.4578,-2.39595 -0.047,-3.72039 z"
       id="path1487-3" />
  </g>
</svg>
